<?xml version="1.0" encoding="UTF-8"?>
<svg xmlns="http://www.w3.org/2000/svg" version="1.1" width="1000px" height="1000px" style="shape-rendering:geometricPrecision; text-rendering:geometricPrecision; image-rendering:optimizeQuality; fill-rule:evenodd; clip-rule:evenodd" xmlns:xlink="http://www.w3.org/1999/xlink">
<g><path style="opacity:1" fill="#663399" d="M -0.5,-0.5 C 285.5,-0.5 571.5,-0.5 857.5,-0.5C 926.405,10.5679 971.905,49.2345 994,115.5C 996.172,124.235 998.005,132.902 999.5,141.5C 999.5,380.167 999.5,618.833 999.5,857.5C 988.432,926.405 949.765,971.905 883.5,994C 874.765,996.172 866.098,998.005 857.5,999.5C 618.833,999.5 380.167,999.5 141.5,999.5C 72.5952,988.432 27.0952,949.765 5,883.5C 2.82789,874.765 0.994558,866.098 -0.5,857.5C -0.5,571.5 -0.5,285.5 -0.5,-0.5 Z"/></g>
<g><path style="opacity:1" fill="#fefefe" d="M 690.5,645.5 C 690.5,648.833 690.5,652.167 690.5,655.5C 668.5,655.5 646.5,655.5 624.5,655.5C 624.797,643.169 621.963,631.503 616,620.5C 605.97,611.154 594.47,608.987 581.5,614C 573.887,618.375 569.054,624.875 567,633.5C 561.249,660.497 570.749,679.664 595.5,691C 618.61,699.219 639.943,710.552 659.5,725C 679.277,742.383 690.777,764.217 694,790.5C 697.278,816.054 694.944,841.054 687,865.5C 671.617,899.125 645.45,917.959 608.5,922C 531.443,926.449 492.443,889.949 491.5,812.5C 514.5,812.5 537.5,812.5 560.5,812.5C 560.292,826.334 563.792,839.001 571,850.5C 579.559,858.621 589.725,861.454 601.5,859C 615.509,854.869 622.676,845.369 623,830.5C 627.484,808.556 621.317,790.389 604.5,776C 586.603,765.885 568.27,756.551 549.5,748C 532.845,739.009 519.011,726.843 508,711.5C 501.359,698.603 497.359,684.937 496,670.5C 490.638,636.943 497.972,606.61 518,579.5C 534.267,561.783 554.433,551.616 578.5,549C 639.242,542.791 676.075,569.291 689,628.5C 690.029,634.123 690.529,639.79 690.5,645.5 Z"/></g>
<g><path style="opacity:1" fill="#fefefe" d="M 915.5,647.5 C 915.5,650.167 915.5,652.833 915.5,655.5C 893.5,655.5 871.5,655.5 849.5,655.5C 849.795,653.265 849.461,651.265 848.5,649.5C 849.143,636.591 845.143,625.425 836.5,616C 821.916,608.563 808.75,610.397 797,621.5C 788.459,638.775 788.459,656.108 797,673.5C 804.101,681.602 812.601,687.768 822.5,692C 845.447,699.969 866.447,711.303 885.5,726C 907.383,746.272 918.883,771.439 920,801.5C 921.888,824.174 918.888,846.174 911,867.5C 895.139,900.871 868.639,919.037 831.5,922C 759.336,926.676 721.003,892.843 716.5,820.5C 716.5,818.167 716.5,815.833 716.5,813.5C 739.5,813.5 762.5,813.5 785.5,813.5C 784.923,826.526 788.089,838.526 795,849.5C 803.331,858.275 813.497,861.442 825.5,859C 834.214,857.947 840.381,853.447 844,845.5C 848.02,832.798 849.353,819.798 848,806.5C 844.921,790.414 836.087,778.581 821.5,771C 799.743,761.29 778.743,750.29 758.5,738C 736.683,722.882 724.183,702.049 721,675.5C 717.142,650.845 719.475,626.845 728,603.5C 742.616,571.587 767.45,553.421 802.5,549C 872.873,544.202 910.54,577.035 915.5,647.5 Z"/></g>
<g><path style="opacity:1" fill="#fefdfe" d="M 349.5,548.5 C 431.117,547.454 469.45,587.787 464.5,669.5C 440.167,669.5 415.833,669.5 391.5,669.5C 391.979,658.718 391.146,648.051 389,637.5C 379.462,615.876 363.962,610.043 342.5,620C 333.496,628.856 328.996,639.689 329,652.5C 328.333,708.833 328.333,765.167 329,821.5C 329.918,830.099 332.585,838.099 337,845.5C 348.854,857.483 362.354,859.649 377.5,852C 386.454,843.491 390.954,832.991 391,820.5C 391.499,815.177 391.666,809.844 391.5,804.5C 415.833,804.5 440.167,804.5 464.5,804.5C 467.653,835.514 460.153,863.514 442,888.5C 423.257,908.62 400.09,919.787 372.5,922C 339.313,926.29 309.646,918.29 283.5,898C 265.262,878.989 255.762,856.156 255,829.5C 254.333,767.5 254.333,705.5 255,643.5C 256.428,600.778 276.928,571.611 316.5,556C 327.42,552.512 338.42,550.012 349.5,548.5 Z"/></g>
<g><path style="opacity:1" fill="#b299cc" d="M 690.5,645.5 C 691.482,648.962 691.815,652.629 691.5,656.5C 668.994,656.831 646.66,656.497 624.5,655.5C 646.5,655.5 668.5,655.5 690.5,655.5C 690.5,652.167 690.5,648.833 690.5,645.5 Z"/></g>
<g><path style="opacity:1" fill="#b097cb" d="M 915.5,647.5 C 916.477,650.287 916.81,653.287 916.5,656.5C 893.833,656.5 871.167,656.5 848.5,656.5C 848.5,654.167 848.5,651.833 848.5,649.5C 849.461,651.265 849.795,653.265 849.5,655.5C 871.5,655.5 893.5,655.5 915.5,655.5C 915.5,652.833 915.5,650.167 915.5,647.5 Z"/></g>
<g><path style="opacity:1" fill="#d4c5e2" d="M 785.5,813.5 C 762.5,813.5 739.5,813.5 716.5,813.5C 716.5,815.833 716.5,818.167 716.5,820.5C 715.527,818.052 715.194,815.385 715.5,812.5C 739.006,812.169 762.339,812.502 785.5,813.5 Z"/></g>
</svg>
