<svg width="127" height="80" viewBox="0 0 127 80" fill="none" xmlns="http://www.w3.org/2000/svg">
<path d="M127 0H0V79.9997H127V0Z" fill="#2065B6"/>
<path d="M0 0V8.94424L112.801 80H127V71.056L14.1986 0.000266666L0 0ZM127 0V8.94397L14.1986 79.9997H0V71.0558L112.801 0H127Z" fill="white"/>
<path d="M52.9167 0V79.9997H74.0833V0H52.9167ZM0 26.6666V53.3332H127V26.6666H0Z" fill="white"/>
<path d="M0 31.9999V47.9998H127V31.9999H0ZM57.15 0V79.9997H69.85V0H57.15Z" fill="#CC0000"/>
<path d="M0 79.9997L42.3333 53.3332H51.7991L9.46573 79.9997H0ZM0 0L42.3333 26.6666H32.8676L0 5.96291L0 0ZM75.2009 26.6666L117.534 0H127L84.6667 26.6666H75.2009ZM127 79.9997L84.6667 53.3332H94.1324L127 74.0371V79.9997Z" fill="#CC0000"/>
</svg>
