<svg width="100" height="100" viewBox="0 0 100 100" fill="none" xmlns="http://www.w3.org/2000/svg">
<path d="M2.09057 55.0472C-0.696858 52.2597 -0.696858 47.7404 2.09057 44.9529L44.9529 2.09057C47.7404 -0.696858 52.2597 -0.696858 55.0472 2.09057L97.9094 44.9529C100.697 47.7404 100.697 52.2597 97.9094 55.0472L55.0472 97.9094C52.2597 100.697 47.7404 100.697 44.9529 97.9094L2.09057 55.0472Z" fill="#EE513B"/>
<path d="M36.2461 10.9338L31.9058 15.2743L43.1161 26.4847C42.6626 27.4577 42.4093 28.5427 42.4093 29.687C42.4093 32.9356 44.4504 35.7074 47.3201 36.7899V64.2135C44.4504 65.296 42.4093 68.0678 42.4093 71.3163C42.4093 75.5078 45.8072 78.9056 49.9986 78.9056C54.1901 78.9056 57.5879 75.5078 57.5879 71.3163C57.5879 68.3713 55.9104 65.8177 53.4586 64.5599V36.8274L64.1747 47.5434C63.7433 48.4967 63.5033 49.5549 63.5033 50.6692C63.5033 54.8606 66.9012 58.2585 71.0926 58.2585C75.284 58.2585 78.6819 54.8606 78.6819 50.6692C78.6819 46.4777 75.284 43.0799 71.0926 43.0799C70.2779 43.0799 69.4937 43.2081 68.7579 43.4456L57.249 31.9366C57.4694 31.2259 57.5879 30.4702 57.5879 29.687C57.5879 25.4955 54.1901 22.0976 49.9986 22.0976C49.2154 22.0976 48.4601 22.2163 47.749 22.4366L36.2461 10.9338Z" fill="white"/>
</svg>
