<svg width="101" height="100" viewBox="0 0 101 100" fill="none" xmlns="http://www.w3.org/2000/svg">
<path d="M50.46 0C22.8475 0 0.459961 22.738 0.459961 50.7829C0.459961 74.5789 16.5933 94.4901 38.3433 100C38.11 99.3144 37.96 98.5188 37.96 97.5328V88.8532C35.9308 88.8532 32.5308 88.8532 31.6766 88.8532C28.2558 88.8532 25.2141 87.3593 23.7391 84.5832C22.1016 81.4981 21.8183 76.7795 17.76 73.8934C16.5558 72.9327 17.4725 71.8367 18.86 71.9848C21.4225 72.7211 23.5475 74.507 25.5475 77.1562C27.5391 79.8096 28.4766 80.4105 32.1975 80.4105C34.0016 80.4105 36.7016 80.3047 39.2433 79.8984C40.61 76.3733 42.9725 73.1274 45.86 71.5954C29.21 69.8561 21.2641 61.4431 21.2641 50.0212C21.2641 45.1037 23.3266 40.347 26.8308 36.3394C25.6808 32.3614 24.235 24.2488 27.2725 21.1595C34.7641 21.1595 39.2933 26.0939 40.3808 27.427C44.1141 26.1278 48.2141 25.3915 52.5225 25.3915C56.8391 25.3915 60.9558 26.1278 64.6975 27.4355C65.7725 26.1109 70.3058 21.1595 77.8141 21.1595C80.8641 24.2531 79.4016 32.3995 78.2391 36.369C81.7225 40.3682 83.7725 45.1121 83.7725 50.0212C83.7725 61.4346 75.8391 69.8434 59.2141 71.5912C63.7891 74.0161 67.1266 80.8295 67.1266 85.9628V97.5328C67.1266 97.9729 67.0308 98.2903 66.9808 98.667C86.4641 91.7309 100.46 72.9412 100.46 50.7829C100.46 22.738 78.0725 0 50.46 0Z" fill="white"/>
</svg>
