<svg width="80" height="90" viewBox="0 0 80 90" fill="none" xmlns="http://www.w3.org/2000/svg">
<rect width="80" height="90" rx="8" fill="#EE513B"/>
<path d="M51.8552 82.3119L52.7983 69.0734L55.4024 65.3286C55.4024 65.3286 49.4754 67.3711 39.5526 67.3711C29.6296 67.3711 23.7925 65.3664 23.7925 65.3664L26.711 69.4514L27.7434 82.3119C27.7434 83.6907 33.1409 84.8082 39.7994 84.8082C46.4575 84.8082 51.8552 83.6907 51.8552 82.3119Z" fill="white"/>
<path d="M48.8802 20.4893L50.8597 13.8979L61.8221 4.18077L58.9328 2.10767L47.3269 12.4588L45.0285 20.3338C43.3631 20.2864 41.6251 20.2611 39.8371 20.2611C27.614 20.2611 17.7051 21.4346 17.7051 22.8819C17.7051 24.3293 27.614 25.5026 39.8371 25.5026C52.0601 25.5026 61.9688 24.3293 61.9688 22.8819C61.9688 21.8161 56.5947 20.8988 48.8802 20.4893Z" fill="white"/>
<path d="M47.7277 24.1824C47.7277 24.1824 47.2989 24.2633 46.0378 24.2679C44.7763 24.2722 43.8806 24.261 43.5239 23.9872C43.4279 23.9137 43.3755 23.7678 43.376 23.669C43.377 23.4808 43.5355 23.37 43.7374 23.3006L43.9284 23.553C43.8454 23.5772 43.7979 23.6057 43.7977 23.6362C43.7971 23.779 45.0876 23.8768 46.0746 23.8663C47.0619 23.856 48.2547 23.7875 48.2558 23.6467C48.2558 23.6041 48.1656 23.564 48.0087 23.5324L48.1988 23.2817C48.4546 23.3486 48.6779 23.4779 48.6774 23.7016C48.6749 24.0819 48.1004 24.1398 47.7277 24.1824Z" fill="white"/>
<path d="M61.8008 4.201C62.0764 3.93281 61.6581 3.2468 60.8665 2.66898C60.0746 2.09145 59.2092 1.84053 58.933 2.10872C58.6572 2.37692 59.0757 3.06293 59.8676 3.64045C60.6592 4.21813 61.525 4.46934 61.8008 4.201Z" fill="white"/>
<path d="M51.33 49.974C51.0702 47.8682 56.7975 44.8185 55.3277 44.7209C52.1635 44.8733 50.5886 47.8447 48.9966 50.9567C48.4132 52.0973 46.417 56.9608 45.1077 56.3621C43.7988 55.7636 46.8047 51.7643 47.6472 49.3891C46.6751 49.9897 43.1099 52.323 42.1911 50.1378C40.714 51.1946 37.5576 51.7672 37.9137 48.9911C37.1278 50.1637 35.3641 51.8009 33.2471 51.1206C30.4669 50.2274 34.8581 42.767 35.9499 43.1433C37.042 43.5196 35.7296 45.2191 35.3858 45.879C34.6299 47.3314 33.7566 49.1573 34.34 49.531C35.3394 50.1713 38.0591 47.1086 38.1196 47.0413C38.6283 46.4752 40.0774 42.7715 41.2454 43.1968C42.4134 43.6221 38.3321 48.5121 39.8581 49.4825C40.1659 49.6784 41.4251 49.3618 42.1911 48.6636C42.6868 48.212 42.5163 47.2117 44.1684 43.8926C45.8206 40.5737 47.293 36.4404 48.4261 36.7553C49.5592 37.07 48.6252 39.1914 48.2188 39.9822C46.3113 43.6939 43.013 49.826 44.5685 49.3618C46.124 48.8977 46.934 48.8705 48.4572 47.3689C49.9804 45.8673 49.9102 43.394 50.9254 43.4465C51.941 43.4992 51.7705 44.2923 51.5243 44.8961C52.5235 43.9329 56.2609 41.9041 57.1632 43.9134C58.2319 46.2922 51.8161 49.7282 53.4157 49.553C54.9754 49.3821 57.5022 48.034 58.581 46.8082L61.5506 24.3181C61.5506 24.3181 58.5625 26.4013 39.5517 26.4013C20.5408 26.4013 17.8618 24.3614 17.8618 24.3614L20.39 44.8895C21.7319 41.6766 24.9186 35.1778 29.9416 35.396C32.2265 35.4952 35.2767 39.2015 32.6639 39.3271C31.5579 39.3801 31.4457 37.4771 30.136 37.1977C29.191 36.9959 27.8753 37.6431 27.025 38.3444C25.3292 39.7424 21.6821 45.2585 22.164 48.0085C22.7779 51.5145 27.9071 46.7902 28.775 45.3876C29.3862 44.3996 29.7991 41.4722 31.1358 41.7794C32.4727 42.0865 31.0192 45.1075 30.0502 47.7785C28.9616 50.7777 28.3894 53.9414 27.025 53.5775C25.6605 53.2139 27.8831 49.342 27.8027 48.6636C26.5202 49.6604 24.1574 52.184 21.1347 50.9349L22.7048 63.6827C22.7048 63.6827 26.8778 66.4603 39.4487 66.4603C52.0196 66.4603 56.3471 63.7261 56.3471 63.7261L58.2967 48.9611C56.7016 50.2696 51.6532 52.5931 51.33 49.974Z" fill="white"/>
</svg>
