<svg width="78" height="89" viewBox="0 0 78 89" fill="none" xmlns="http://www.w3.org/2000/svg">
<path d="M39 81.6602V7.34058L71.5 7.44839L65.7044 73.9417L39 81.6602Z" fill="#EF652A"/>
<path d="M6.53124 79.7951L0 0L78 0.160352L71.0939 79.7951L39.2944 89L6.53124 79.7951Z" fill="#E34F26"/>
<path d="M39.4937 81.9981V7.7561L73.1791 7.8638L67.1722 74.2881L39.4937 81.9981Z" fill="#F1714D"/>
<path d="M62.4627 26.2731L63.375 16.5156H13.8125L16.5508 46.4306H50.7561L49.4148 59.1896L38.4603 62.1376L27.345 58.9213L26.7544 51.3087H16.9268L18.2695 66.8557L38.4597 72.4847L58.8108 66.8557L61.5491 36.5125H25.6263L24.6061 26.2731H62.4627Z" fill="white"/>
</svg>
