<svg width="98" height="108" viewBox="0 0 98 108" fill="none" xmlns="http://www.w3.org/2000/svg">
<g clip-path="url(#clip0_223_231)">
<path d="M82.2282 42.9469C82.075 39.2344 82.5344 35.9438 81.0032 33.1594C77.3282 26.2407 68.1407 22.1907 49.7656 22.1907C31.3906 22.1907 21.7438 26.2407 18.0688 33.2438C16.6141 36.1126 16.7672 39.3188 16.5375 43.0313C16.3844 45.9844 15.1594 49.1063 15.6953 52.4813C16.3078 56.8688 16.5375 61.2563 17.15 65.3063C17.6094 68.5969 21.7438 71.3813 22.1266 74.5032C23.1985 83.1094 31.3141 87.075 49.6891 87.075V87.75H49.2297H49.7656V87.075C68.1407 87.075 75.95 83.1094 76.9453 74.5032C77.3282 71.2969 81.1563 68.5969 81.6157 65.3063C82.2282 61.2563 82.4578 56.8688 83.0703 52.4813C83.6063 49.1063 82.3813 45.9001 82.2282 42.9469Z" fill="#EFCCA3"/>
<path d="M49.4593 45.9844C52.7515 46.0688 55.0483 48.3469 57.1921 50.4562C59.7186 52.9031 64.0062 54.5906 65.7671 56.7C67.528 58.8094 69.8249 60.9187 70.6671 64.2094C71.5093 67.5 71.739 71.7188 71.739 72.8156C71.739 73.9125 72.2749 73.6594 73.8062 72.8156C77.4046 70.875 81.3858 65.6438 81.3858 65.6438C80.9265 68.9344 77.0218 71.8875 76.639 75.0094C75.7202 83.6156 68.1405 87.75 49.3827 87.75H49.3062H49.7655" fill="#CCAC8D"/>
<path d="M61.5561 39.4032C62.2451 42.0188 64.6951 50.8782 59.9482 47.9251C59.9482 47.9251 61.9389 49.1907 63.1639 54.0001C64.4654 58.8094 67.6045 59.4001 67.6045 59.4001C67.6045 59.4001 72.7342 60.4969 76.5623 56.8688C79.7779 53.8313 80.3139 48.4313 78.9357 44.2969C77.5576 40.2469 75.1076 38.9813 71.5092 38.1376C67.9107 37.2094 60.7139 36.4501 61.5561 39.4032Z" fill="#CCAC8D"/>
<path d="M70.6672 56.4469C74.3882 56.4469 77.4047 53.1226 77.4047 49.0219C77.4047 44.9212 74.3882 41.5969 70.6672 41.5969C66.9462 41.5969 63.9297 44.9212 63.9297 49.0219C63.9297 53.1226 66.9462 56.4469 70.6672 56.4469Z" fill="black"/>
<path d="M68.9064 47.6718C69.879 47.6718 70.6674 46.8029 70.6674 45.7312C70.6674 44.6594 69.879 43.7905 68.9064 43.7905C67.9339 43.7905 67.1455 44.6594 67.1455 45.7312C67.1455 46.8029 67.9339 47.6718 68.9064 47.6718Z" fill="white"/>
<path d="M60.4076 48.6843C60.4076 48.6843 66.4561 53.2406 69.7482 57.7125C73.0404 62.1843 72.9639 63.0281 72.9639 63.0281L70.5904 64.2093C70.5904 64.2093 67.2217 57.2062 63.0873 54.5906C58.8764 51.9749 58.417 49.7812 58.417 49.7812L60.4076 48.6843Z" fill="#EFCCA3"/>
<path d="M49.6891 45.9844C46.3969 46.0688 43.9469 48.3469 41.7266 50.4562C39.2 52.9031 34.7594 54.5906 32.9984 56.7C31.2375 58.8094 28.8641 60.9187 28.0219 64.2094C27.1797 67.5 26.8734 71.7188 26.8734 72.8156C26.8734 73.9125 27.0266 73.9969 24.8063 72.8156C21.2078 70.9594 17.2266 65.6438 17.2266 65.6438C17.6859 68.9344 21.5906 71.8875 21.9734 75.0094C23.0453 83.6156 30.625 87.75 49.3828 87.75H49.7656" fill="#CCAC8D"/>
<path d="M67.4515 60.2438C63.7765 55.2656 57.8812 50.625 49.689 50.625H49.6125C41.4203 50.625 35.525 55.2656 31.85 60.2438C28.0218 65.3906 28.3281 67.4156 28.3281 72.3094C28.3281 90.0281 33.9937 84.9656 37.7453 87.1594C41.5734 89.2688 45.5547 88.5938 49.6125 88.5938H49.689C53.8234 88.5938 57.7281 89.1844 61.5562 87.075C65.3078 84.9656 70.9734 90.1969 70.9734 72.4781C71.05 67.5844 71.2797 65.3906 67.4515 60.2438Z" fill="#56332B"/>
<path d="M49.3061 55.0125C49.3061 55.0125 48.7701 63.1968 47.6982 64.8L49.6889 64.2937L49.3061 55.0125Z" fill="#442823"/>
<path d="M49.8423 55.0125C49.8423 55.0125 50.3782 63.1968 51.4501 64.8L49.4595 64.2937L49.8423 55.0125Z" fill="#442823"/>
<path d="M43.4111 53.0719C42.6455 51.1313 45.4017 48.0094 49.7658 47.925C54.1298 47.925 56.8861 51.0469 56.1205 53.0719C55.3548 55.0969 52.5986 55.6875 49.7658 55.7719C47.0095 55.6875 44.1767 55.0969 43.4111 53.0719Z" fill="#56332B"/>
<path d="M49.7655 55.0126C49.7655 54.6751 52.3686 54.5907 53.7468 53.5782C53.7468 53.5782 50.914 54.5907 50.3015 54.1688C49.689 53.8313 49.5358 52.8188 49.5358 52.8188C49.5358 52.8188 49.3062 53.8313 48.8468 54.1688C48.3108 54.5063 45.0952 53.5782 45.0952 53.5782C45.0952 53.5782 49.3827 54.7595 49.3827 55.0126C49.3827 55.2657 49.3062 56.1095 49.3062 56.7001C49.3062 58.8095 49.3062 64.0407 49.6124 64.4626C50.0718 65.222 49.9186 58.8095 49.9186 56.7001C49.8421 56.0251 49.8421 55.3501 49.7655 55.0126Z" fill="black"/>
<path d="M49.9186 66.3188C51.2202 66.3188 53.5171 67.3313 55.5843 68.9344C53.5936 66.4875 51.2202 64.8 49.9186 64.8C48.5405 64.8 45.6312 66.6563 43.564 69.3563C45.7077 67.5 48.464 66.3188 49.9186 66.3188Z" fill="#7F4A41"/>
<path d="M49.3828 81.253C46.4734 81.253 43.6406 80.2405 41.0375 79.4811C40.5016 79.3124 39.9656 79.7343 39.4297 79.5655C34.6062 77.878 30.7016 75.0093 28.3281 71.3811V72.2249C28.3281 89.9436 33.9937 84.9655 37.7453 87.0749C41.5734 89.1843 45.5547 88.5093 49.6125 88.5093H49.6891C53.8234 88.5093 57.7281 89.0999 61.5562 86.9905C65.3078 84.8811 70.9734 90.028 70.9734 72.3093C70.9734 71.6343 70.9734 70.9593 71.05 70.3687C68.8297 74.3343 64.7719 77.4562 59.7187 79.3124C59.2594 79.4812 58.1875 79.0593 57.7281 79.1437C54.9719 80.1562 52.5219 81.253 49.3828 81.253Z" fill="#442823"/>
<path d="M42.1093 71.7188C42.1093 71.7188 40.1952 78.0469 41.4968 80.8313L39.7358 79.9875C39.7358 79.9875 41.0374 73.575 42.1093 71.7188ZM57.2687 71.7188C57.2687 71.7188 59.1827 78.0469 57.8812 80.8313L59.6421 79.9875C59.6421 79.9875 58.264 73.575 57.2687 71.7188Z" fill="#442823"/>
<path d="M37.2092 39.4032C36.5201 42.0188 34.0701 50.8782 38.817 47.9251C38.817 47.9251 36.8264 49.1907 35.6014 54.0001C34.3764 58.8094 31.1608 59.4001 31.1608 59.4001C31.1608 59.4001 26.0311 60.4969 22.203 56.8688C18.9873 53.8313 18.4514 48.4313 19.8295 44.2969C21.2076 40.1626 23.6576 38.9813 27.2561 38.1376C30.8545 37.2094 37.9748 36.4501 37.2092 39.4032Z" fill="#CCAC8D"/>
<path d="M49.6893 64.8C51.7564 64.8 58.1877 69.6937 58.2643 75.6844V75.3469C58.2643 69.1031 53.058 64.125 49.6893 64.125C46.3205 64.125 41.1143 69.1875 41.1143 75.3469V75.6844C41.1908 69.6937 47.6221 64.8 49.6893 64.8Z" fill="black"/>
<path d="M51.3607 53.1179C51.6882 53.0247 51.8253 52.4006 51.6669 51.7237C51.5084 51.0469 51.1145 50.5737 50.7869 50.6668C50.4594 50.76 50.3223 51.3841 50.4807 52.061C50.6391 52.7378 51.0331 53.211 51.3607 53.1179Z" fill="#331712"/>
<path d="M47.425 53.1051C47.748 53.2156 48.1623 52.7639 48.3502 52.0963C48.5382 51.4287 48.4286 50.798 48.1055 50.6875C47.7824 50.5771 47.3682 51.0287 47.1802 51.6963C46.9923 52.3639 47.1019 52.9947 47.425 53.1051Z" fill="#331712"/>
<path d="M28.4812 56.4469C32.2022 56.4469 35.2187 53.1226 35.2187 49.0219C35.2187 44.9212 32.2022 41.5969 28.4812 41.5969C24.7601 41.5969 21.7437 44.9212 21.7437 49.0219C21.7437 53.1226 24.7601 56.4469 28.4812 56.4469Z" fill="black"/>
<path d="M30.2424 47.6718C31.2149 47.6718 32.0033 46.8029 32.0033 45.7312C32.0033 44.6594 31.2149 43.7905 30.2424 43.7905C29.2698 43.7905 28.4814 44.6594 28.4814 45.7312C28.4814 46.8029 29.2698 47.6718 30.2424 47.6718Z" fill="white"/>
<path d="M51.6799 49.1062C51.6799 49.0219 49.9189 49.95 49.4596 50.0344C49.0002 49.95 47.2393 49.0219 47.2393 49.1062H51.6799Z" fill="#7F4A41"/>
<path d="M38.281 48.6843C38.281 48.6843 32.2326 53.2406 28.9404 57.7125C25.6482 62.1843 25.7248 63.0281 25.7248 63.0281L28.0982 64.2093C28.0982 64.2093 31.4669 57.2062 35.6013 54.5906C39.7357 51.9749 40.2716 49.7812 40.2716 49.7812L38.281 48.6843Z" fill="#EFCCA3"/>
<path d="M25.0359 35.1843C25.0359 35.1843 22.9688 41.4281 18.375 44.0437C18.375 44.0437 25.5719 43.1156 25.0359 35.1843ZM73.3469 35.1843C73.3469 35.1843 75.4141 41.4281 80.0078 44.0437C80.0078 44.0437 72.8109 43.1156 73.3469 35.1843ZM60.2547 46.8281C60.2547 46.8281 55.7375 41.5968 49.6891 41.4281H49.7656H49.8422C43.7172 41.5968 39.2766 46.8281 39.2766 46.8281C44.5594 42.7781 49.0766 42.8624 49.8422 42.8624C49.7656 42.8624 54.9719 42.7781 60.2547 46.8281ZM54.9719 35.8593C54.9719 35.8593 52.675 32.3156 49.6125 32.2312H49.7656C47.4688 32.3156 44.4828 35.8593 44.4828 35.8593C47.0859 33.075 49.7656 33.1593 49.7656 33.1593C49.7656 33.1593 52.2922 33.075 54.9719 35.8593ZM28.4813 61.7624C28.4813 61.7624 24.8828 63.7031 22.2797 62.5218H22.2031C19.9063 61.0874 18.7578 56.7843 18.7578 56.7843C18.7578 56.7843 21.0547 64.3781 28.4813 61.7624ZM70.4375 61.7624C70.4375 61.7624 74.0359 63.7031 76.6391 62.5218C79.7016 61.0874 80.1609 56.7843 80.1609 56.7843C80.1609 56.7843 77.8641 64.3781 70.4375 61.7624Z" fill="#CCAC8D"/>
<path d="M32.6156 34.7624C34.6062 34.3405 37.8984 34.2562 40.5016 35.1843C43.7938 36.4499 41.1141 41.0905 41.8031 41.3437C42.4922 41.5968 43.4109 38.1374 49.5359 38.4749C55.7375 38.8124 56.4266 41.8499 57.2688 41.3437C58.1109 40.8374 56.4266 32.9062 65.6906 34.7624C65.6906 34.7624 55.9672 31.8937 56.4266 39.6562C56.4266 39.6562 50.8375 34.9312 43.0281 39.1499C43.1047 39.1499 45.0953 31.8937 32.6156 34.7624ZM66.5328 34.7624C66.6859 34.7624 66.7625 34.8468 66.8391 34.8468C66.9156 34.8468 66.7625 34.7624 66.5328 34.7624ZM29.9359 24.3843C29.9359 24.3843 21.6672 35.8593 20.4422 40.2468C19.2172 44.7187 18.2984 63.028 17.2266 65.6437L13.3984 47.5874L20.4422 28.7718L29.9359 24.3843ZM68.8297 24.3843C68.8297 24.3843 77.0984 35.8593 78.3234 40.2468C79.5484 44.7187 80.4672 63.028 81.5391 65.6437L85.3672 47.5874L78.3234 28.7718L68.8297 24.3843Z" fill="#CCAC8D"/>
<path d="M68.4471 24.3843C68.4471 24.3843 77.3283 32.5687 79.9314 42.0187C82.5346 51.4687 81.4627 62.9437 83.4533 64.3781C86.2861 66.4031 89.5017 54.3375 90.5736 53.0718C92.258 51.0468 97.8471 45.9 98.2299 44.9718C98.6127 44.0437 86.8986 29.9531 81.7689 27.1687C75.5674 23.9625 67.9111 23.7093 68.4471 24.3843Z" fill="#56332B"/>
<path d="M76.0264 29.4468C76.0264 29.4468 86.5154 44.2124 86.3623 62.6061L90.5732 53.1562C90.4967 53.1562 86.8217 41.0905 76.0264 29.4468Z" fill="#442823"/>
<path d="M29.936 24.3843C29.936 24.3843 21.0548 32.5687 18.4516 42.0187C15.8485 51.4687 16.9204 62.9437 14.9298 64.3781C12.097 66.4031 8.88133 54.3375 7.80945 53.0718C6.12508 51.0468 0.536017 45.9 0.153204 44.9718C-0.229608 44.0437 11.4845 29.9531 16.6141 27.1687C22.8157 23.9625 30.472 23.7093 29.936 24.3843Z" fill="#56332B"/>
<path d="M22.3561 29.4468C22.3561 29.4468 11.867 44.2124 12.0201 62.6061L7.88574 53.1562C7.88574 53.1562 11.5607 41.0905 22.3561 29.4468Z" fill="#442823"/>
<path d="M16.6904 62.9438C16.6904 62.9438 17.4561 67.5001 18.6811 68.9344C19.9061 70.3688 19.0639 67.8376 19.0639 67.8376C19.0639 67.8376 17.7623 67.0782 17.992 61.2563C18.2217 55.4344 16.6904 62.9438 16.6904 62.9438ZM81.9982 62.9438C81.9982 62.9438 81.2326 67.5001 80.0076 68.9344C78.7826 70.3688 79.6248 67.8376 79.6248 67.8376C79.6248 67.8376 80.9264 67.0782 80.6967 61.2563C80.467 55.4344 81.9982 62.9438 81.9982 62.9438Z" fill="#CCAC8D"/>
<path d="M41.7268 60.1593C42.065 60.1593 42.3393 59.8571 42.3393 59.4843C42.3393 59.1115 42.065 58.8093 41.7268 58.8093C41.3885 58.8093 41.1143 59.1115 41.1143 59.4843C41.1143 59.8571 41.3885 60.1593 41.7268 60.1593Z" fill="#442823"/>
<path d="M38.2048 64.2094C38.5431 64.2094 38.8173 63.9072 38.8173 63.5344C38.8173 63.1616 38.5431 62.8594 38.2048 62.8594C37.8665 62.8594 37.5923 63.1616 37.5923 63.5344C37.5923 63.9072 37.8665 64.2094 38.2048 64.2094Z" fill="#442823"/>
<path d="M37.0564 60.1593C37.3946 60.1593 37.6688 59.8571 37.6688 59.4843C37.6688 59.1115 37.3946 58.8093 37.0564 58.8093C36.7181 58.8093 36.4438 59.1115 36.4438 59.4843C36.4438 59.8571 36.7181 60.1593 37.0564 60.1593Z" fill="#442823"/>
<path d="M56.6564 60.1593C56.9947 60.1593 57.2689 59.8571 57.2689 59.4843C57.2689 59.1115 56.9947 58.8093 56.6564 58.8093C56.3182 58.8093 56.0439 59.1115 56.0439 59.4843C56.0439 59.8571 56.3182 60.1593 56.6564 60.1593Z" fill="#442823"/>
<path d="M60.1784 64.2094C60.5167 64.2094 60.7909 63.9072 60.7909 63.5344C60.7909 63.1616 60.5167 62.8594 60.1784 62.8594C59.8401 62.8594 59.5659 63.1616 59.5659 63.5344C59.5659 63.9072 59.8401 64.2094 60.1784 64.2094Z" fill="#442823"/>
<path d="M61.3269 60.1593C61.6651 60.1593 61.9394 59.8571 61.9394 59.4843C61.9394 59.1115 61.6651 58.8093 61.3269 58.8093C60.9886 58.8093 60.7144 59.1115 60.7144 59.4843C60.7144 59.8571 60.9886 60.1593 61.3269 60.1593Z" fill="#442823"/>
</g>
<defs>
<clipPath id="clip0_223_231">
<rect width="98" height="108" fill="white"/>
</clipPath>
</defs>
</svg>
