<svg width="88" height="94" viewBox="0 0 88 94" fill="none" xmlns="http://www.w3.org/2000/svg">
<path d="M75.7546 53.9774C72.6778 54.0022 70.0135 55.0552 67.7789 56.6232C66.9539 54.2961 66.1288 52.2628 65.9914 50.7443C65.8367 48.9807 65.6477 47.9026 65.8367 45.7963C66.0256 43.6895 66.8851 40.701 66.8851 40.4561C66.8677 40.2356 66.6958 39.1578 64.9256 39.1334C63.1553 39.1089 61.6253 39.6233 61.4534 40.2846C61.2815 40.946 60.9377 42.4647 60.7142 44.0324C60.4048 46.3349 57.1733 54.4918 55.3341 58.7785C54.7325 57.1128 54.2168 55.6431 54.1135 54.4671C53.959 52.7037 53.7697 51.6257 53.959 49.5193C54.148 47.4125 55.0075 44.4243 55.0075 44.1794C54.9903 43.9589 54.8184 42.8811 53.0481 42.8566C51.2775 42.8321 49.7478 43.3465 49.5759 44.0079C49.4041 44.6693 49.215 46.237 48.8368 47.7557C48.4757 49.2744 44.1784 62.8937 43.0611 66.4455C42.4939 68.2581 41.9956 69.7033 41.6345 70.6832C41.2735 71.663 41.6173 70.7566 41.5829 70.8546C41.2735 71.6875 41.1016 72.1529 41.1016 72.1529V72.1776C40.8609 72.79 40.6031 73.3776 40.4826 73.3776C40.3967 73.3776 40.2248 71.7365 40.517 69.4831C41.153 64.7553 42.7 57.3825 42.683 57.1131C42.683 56.9906 42.975 55.6921 41.6858 55.031C40.4311 54.3696 39.9843 55.4719 39.881 55.4719C39.7779 55.4719 39.6919 55.8638 39.6919 55.8638C39.6919 55.8638 41.0842 47.5602 37.0276 47.5602C34.4837 47.5602 30.9771 51.5039 29.241 55.1047C28.1409 55.962 25.8032 57.7744 23.328 59.7098C22.3826 60.4447 21.4028 61.2285 20.4746 61.9389L20.2857 61.6444C15.3697 54.1734 6.27668 48.8824 6.65484 38.8394C6.79235 35.1896 7.68618 25.563 24.119 13.9033C37.578 4.3502 48.3555 6.97118 50.229 12.801C52.8933 21.1294 44.4706 36.6104 30.479 38.8394C25.1504 39.6967 22.3484 36.7573 21.6438 35.655C20.9047 34.5038 20.8016 34.4548 20.5265 34.6752C20.0796 35.0182 20.3546 36.047 20.5265 36.6593C20.9391 38.2025 22.658 40.946 25.5801 42.3177C28.1411 43.518 34.3981 44.1794 41.9612 40.0152C50.4354 35.3366 57.0532 22.3542 55.1108 11.5028C53.1341 0.455461 40.2767 -3.16983 28.1241 2.97847C20.8873 6.65274 13.0491 12.3846 7.41115 19.9046C0.707442 28.8209 -0.358276 36.6104 0.0886376 39.8437C1.65301 51.3809 12.8085 58.901 17.2776 64.4614C17.0542 64.6326 16.8479 64.8041 16.6588 64.9513C14.4243 66.5187 5.91571 72.8632 3.78427 79.5747C1.37781 87.1682 4.16243 92.6308 6.01884 93.3657C11.76 95.6438 17.6386 91.5531 20.8186 84.8169C23.9812 78.0807 23.6032 69.3359 22.1421 65.3432L22.0904 65.1962L23.8437 63.7265C24.9783 62.7712 26.0956 61.8894 27.0752 61.1298C26.5253 63.2609 26.1298 65.7839 25.9237 69.4582C25.6831 73.7696 26.9207 79.3542 28.5536 81.5588C29.2756 82.5138 30.135 82.5386 30.6679 82.5386C32.5587 82.5386 33.4181 80.3093 34.3635 77.6395C35.5324 74.3817 36.5637 70.6094 36.5637 70.6094C36.5637 70.6094 35.2745 80.8239 38.7983 80.8239C40.0874 80.8239 41.3766 78.4479 41.961 77.2231V77.2476C41.961 77.2476 41.9954 77.1741 42.0642 77.0027C42.1363 76.8507 42.2051 76.6956 42.2704 76.5375V76.4885C42.7861 75.2148 43.9378 72.2998 45.6567 67.4743C47.8739 61.2525 50.0055 53.463 50.0055 53.463C50.0055 53.463 50.2118 55.3737 50.8478 58.509C51.2257 60.3709 52.0508 62.4038 52.6868 64.3879C52.1711 65.4167 51.8617 66.0048 51.8617 66.0048L51.8789 66.0293C51.4666 66.8132 51.0023 67.6462 50.5212 68.4788C48.7679 71.4673 46.6708 74.8723 46.3958 75.8521C46.0692 77.0032 46.138 77.8605 46.774 78.5466C47.2381 79.0365 48.0631 79.1342 48.9398 79.0365C50.5212 78.8893 51.6213 78.3261 52.1713 77.983C53.0308 77.5421 54.0105 76.8807 54.9559 75.9009C56.6748 74.0885 57.7234 71.5165 57.6202 68.0872C57.5687 66.201 57.1389 64.3394 56.6061 62.5757C56.7608 62.2573 56.9156 61.9386 57.0702 61.5959C59.786 55.9373 61.8831 49.7158 61.8831 49.7158C61.8831 49.7158 62.0894 51.6264 62.7254 54.7618C63.0518 56.354 63.7051 58.0934 64.2896 59.808C61.7456 62.7719 60.147 66.2013 59.597 68.4548C58.5828 72.619 59.3735 74.5051 60.8689 74.9461C61.5391 75.142 62.5019 74.7011 63.2237 74.2602C64.1175 73.8438 65.2004 73.1332 66.1975 72.0801C67.9164 70.2675 69.5666 67.7445 69.4806 64.3396C69.4291 62.772 69.1369 61.2288 68.7415 59.759C70.9073 58.4853 73.709 57.7504 77.2673 58.3628C84.9164 59.6366 86.429 66.4462 86.1369 69.2877C85.8447 72.1294 84.2462 73.6968 83.7131 74.1867C83.1803 74.6521 83.0084 74.8238 83.0599 75.1665C83.1287 75.6812 83.3694 75.6564 83.8335 75.5587C84.4694 75.4115 87.8557 73.2316 87.9932 67.9899C88.1995 61.2528 83.7131 53.9042 75.7546 53.9774ZM16.762 82.3184C14.2352 86.2621 10.6771 87.7563 9.16443 86.4826C7.53148 85.1353 8.1673 79.33 11.2787 75.1413C13.1695 72.5938 15.6275 70.2423 17.2433 68.797C17.6042 68.4786 18.1543 68.0134 18.8075 67.4498C18.9106 67.3521 18.9794 67.3028 18.9794 67.3028C19.0997 67.2048 19.2372 67.0824 19.3747 66.9599C20.5264 72.9367 19.4263 78.1787 16.762 82.3184ZM35.2401 64.4124C34.3635 67.4743 32.5071 75.3372 31.3898 74.8963C30.4271 74.5289 29.8428 68.5766 31.2006 62.6977C31.8881 59.7336 33.3492 56.2065 34.2086 54.8345C35.6011 52.63 37.1136 51.8951 37.4919 52.8014C37.9388 53.9774 35.7902 62.5018 35.2401 64.4124ZM50.4868 74.7984C50.1086 75.068 49.7649 75.2638 49.6102 75.117C49.4898 75.0191 49.7647 74.6516 49.7647 74.6516C49.7647 74.6516 51.6727 71.7367 52.429 70.3895C52.8587 69.6059 53.3744 68.6995 53.9244 67.6705V67.9644C53.9246 71.4915 51.5525 73.843 50.4868 74.7984ZM62.2439 70.9771C61.9689 70.6832 62.0034 69.7768 62.9315 66.9354C63.2926 65.8086 64.1175 63.9225 65.5442 62.1343C65.7161 62.8692 65.8194 63.5793 65.802 64.2409C65.785 68.6501 63.5848 70.2912 62.2439 70.9771Z" fill="#CF649A"/>
</svg>
