<svg width="11" height="10" viewBox="0 0 11 10" fill="none" xmlns="http://www.w3.org/2000/svg">
<path d="M9.55476 0.00018107C9.53857 0.000692868 9.52241 0.00210977 9.50638 0.00442511H6.95562C6.89803 0.00361067 6.84085 0.01425 6.78741 0.0357247C6.73397 0.0571995 6.68533 0.0890813 6.64431 0.129518C6.6033 0.169954 6.57073 0.218138 6.5485 0.27127C6.52628 0.324401 6.51483 0.381421 6.51483 0.439015C6.51483 0.496609 6.52628 0.553629 6.5485 0.606761C6.57073 0.659893 6.6033 0.708077 6.64431 0.748513C6.68533 0.788949 6.73397 0.820831 6.78741 0.842306C6.84085 0.863781 6.89803 0.87442 6.95562 0.873606H8.51409L4.04072 5.34683C3.99901 5.38687 3.96571 5.43484 3.94276 5.48792C3.91982 5.54099 3.9077 5.59811 3.90712 5.65593C3.90653 5.71375 3.91748 5.7711 3.93934 5.82464C3.96119 5.87817 3.99351 5.9268 4.0344 5.96769C4.07529 6.00857 4.12392 6.04089 4.17745 6.06274C4.23099 6.0846 4.28834 6.09555 4.34616 6.09496C4.40399 6.09438 4.46111 6.08226 4.51418 6.05932C4.56726 6.03638 4.61523 6.00308 4.65528 5.96137L9.12864 1.48814V3.04656C9.12783 3.10415 9.13847 3.16132 9.15995 3.21476C9.18142 3.2682 9.2133 3.31684 9.25374 3.35785C9.29418 3.39887 9.34236 3.43143 9.3955 3.45366C9.44863 3.47589 9.50565 3.48734 9.56325 3.48734C9.62084 3.48734 9.67787 3.47589 9.731 3.45366C9.78413 3.43143 9.83232 3.39887 9.87276 3.35785C9.91319 3.31684 9.94508 3.2682 9.96655 3.21476C9.98803 3.16132 9.99867 3.10415 9.99785 3.04656V0.494188C10.0065 0.431618 10.0014 0.367913 9.98295 0.30751C9.96447 0.247106 9.93305 0.191455 9.89087 0.144432C9.8487 0.0974094 9.79678 0.0601443 9.73873 0.0352317C9.68068 0.0103192 9.6179 -0.00164196 9.55476 0.00018107ZM0.871162 1.74279C0.396112 1.74279 0.00195312 2.13693 0.00195312 2.61197V9.13082C0.00195312 9.60585 0.396112 10 0.871162 10H7.39023C7.86528 10 8.25944 9.60585 8.25944 9.13082V4.78492V3.66449L7.39023 4.53367V5.6541V9.13082H0.871162V2.61197H4.348H5.21721H5.46846L6.33767 1.74279H5.21721H4.348H0.871162Z" fill="#F3F3F3"/>
</svg>
