<svg width="36" height="36" viewBox="0 0 36 36" fill="none" xmlns="http://www.w3.org/2000/svg">
<path d="M18 0C13.2261 0 8.64773 1.89642 5.27208 5.27208C1.89642 8.64773 0 13.2261 0 18C0 22.7739 1.89642 27.3523 5.27208 30.7279C8.64773 34.1036 13.2261 36 18 36C22.7739 36 27.3523 34.1036 30.7279 30.7279C34.1036 27.3523 36 22.7739 36 18C36 13.2261 34.1036 8.64773 30.7279 5.27208C27.3523 1.89642 22.7739 0 18 0Z" fill="#29B6F6"/>
<path d="M26.9549 9.9L23.5835 27.1134C23.5835 27.1134 23.4386 27.9 22.463 27.9C21.9446 27.9 21.6773 27.6534 21.6773 27.6534L14.3747 21.5937L10.8017 19.7928L6.2162 18.5733C6.2162 18.5733 5.3999 18.3375 5.3999 17.6625C5.3999 17.1 6.2396 16.8318 6.2396 16.8318L25.424 9.2106C25.424 9.2106 26.0099 8.9991 26.4374 9C26.7002 9 26.9999 9.1125 26.9999 9.45C26.9999 9.675 26.9549 9.9 26.9549 9.9Z" fill="white"/>
<path d="M17.1 23.8544L14.0166 26.891C14.0166 26.891 13.8825 26.9945 13.7034 26.999C13.6413 27.0008 13.5747 26.9909 13.5063 26.9603L14.3739 21.5918L17.1 23.8544Z" fill="#B0BEC5"/>
<path d="M23.3076 12.7764C23.1555 12.5784 22.8747 12.5424 22.6767 12.6927L10.8003 19.8C10.8003 19.8 12.6957 25.1028 12.9846 26.0208C13.2744 26.9397 13.5066 26.9613 13.5066 26.9613L14.3742 21.5928L23.223 13.4064C23.421 13.2561 23.4579 12.9744 23.3076 12.7764Z" fill="#CFD8DC"/>
</svg>
