<svg viewBox="0 0 1000 1000" xmlns="http://www.w3.org/2000/svg"><style><![CDATA[:root>svg{display:none}:root>svg:target{display:block}]]></style><svg stroke-width="2.5" stroke="currentColor" fill="none" stroke-linecap="round" stroke-linejoin="round" viewBox="0 0 24 24" id="about--infinity" xmlns="http://www.w3.org/2000/svg"><path d="M0 0h24v24H0z" stroke="none"/><path d="M9.828 9.172a4 4 0 1 0 0 5.656A10 10 0 0 0 12 12a10 10 0 0 1 2.172-2.828 4 4 0 1 1 0 5.656A10 10 0 0 1 12 12a10 10 0 0 0-2.172-2.828"/></svg><svg fill="none" viewBox="0 0 61 58" id="logo--logo" xmlns="http://www.w3.org/2000/svg"><path d="m15.148 31.055 5.533-5.368-5.334-4.77 34.323-9.925-9.23 32.372-5.337-4.781-5.53 5.378 14.892 13.322L60.733.246.256 17.733l14.892 13.322Z" fill="#fff"/></svg><svg fill="none" viewBox="0 0 41 36" id="social--gmail" xmlns="http://www.w3.org/2000/svg"><path d="m41 9.225-4.881 3.093-4.881 5.344V36h6.833C39.69 36 41 34.489 41 32.625v-23.4Z" fill="#4CAF50"/><path d="m0 9.225 3.528 1.923 6.234 6.514V36H2.929C1.31 36 0 34.489 0 32.625v-23.4Z" fill="#1E88E5"/><path d="M31.238 3.6 20.5 12.88 9.762 3.6l-.976 6.525.976 7.537L20.5 26.943l10.738-9.28.976-7.538-.976-6.525Z" fill="#E53935"/><path d="M0 4.835v4.39l9.762 8.438V3.6L6.712.966C5.986.34 5.104 0 4.196 0 1.878 0 0 2.164 0 4.835Z" fill="#C62828"/><path d="M41 4.835v4.39l-9.762 8.438V3.6l3.05-2.634C35.014.34 35.897 0 36.805 0 39.121 0 41 2.164 41 4.835Z" fill="#FBC02D"/></svg><svg fill="none" viewBox="0 0 11 10" id="social--go-to" xmlns="http://www.w3.org/2000/svg"><path d="M9.555 0a.435.435 0 0 0-.049.004h-2.55a.435.435 0 1 0 0 .87h1.558L4.041 5.347a.435.435 0 1 0 .614.614L9.13 1.488v1.559a.435.435 0 1 0 .869 0V.494A.435.435 0 0 0 9.555 0ZM.87 1.743a.876.876 0 0 0-.869.869v6.519c0 .475.394.869.87.869H7.39c.475 0 .87-.394.87-.87V3.666l-.87.869V9.13H.871V2.612h4.597l.87-.87H.87Z" fill="#1b1b1b"/></svg><svg fill="none" viewBox="0 0 36 36" id="social--telegram" xmlns="http://www.w3.org/2000/svg"><path d="M18 0a18 18 0 1 0 0 36 18 18 0 0 0 0-36Z" fill="#29B6F6"/><path d="m26.955 9.9-3.371 17.213s-.145.787-1.121.787c-.518 0-.786-.247-.786-.247l-7.302-6.06-3.573-1.8-4.586-1.22s-.816-.236-.816-.91c0-.563.84-.831.84-.831L25.424 9.21s.586-.212 1.013-.211c.263 0 .563.113.563.45 0 .225-.045.45-.045.45Z" fill="#fff"/><path d="m17.1 23.854-3.083 3.037s-.134.104-.314.108a.445.445 0 0 1-.197-.039l.868-5.368 2.726 2.262Z" fill="#B0BEC5"/><path d="M23.308 12.776a.45.45 0 0 0-.631-.083L10.8 19.8s1.896 5.303 2.185 6.22c.29.92.522.941.522.941l.867-5.368 8.849-8.187a.449.449 0 0 0 .085-.63Z" fill="#CFD8DC"/></svg><svg fill="none" viewBox="0 0 36 36" id="social--whatsapp" xmlns="http://www.w3.org/2000/svg"><g clip-path="url(#afa)"><mask id="afb" style="mask-type:luminance" maskUnits="userSpaceOnUse" x="0" y="0" width="36" height="36"><path d="M36 0H0v36h36V0Z" fill="#fff"/></mask><g mask="url(#afb)"><path d="M18 36c9.941 0 18-8.059 18-18S27.941 0 18 0 0 8.059 0 18s8.059 18 18 18Z" fill="#25D366"/><path fill-rule="evenodd" clip-rule="evenodd" d="M18.593 28.015h-.004a10.693 10.693 0 0 1-5.115-1.303L7.8 28.2l1.518-5.546a10.684 10.684 0 0 1-1.428-5.351C7.891 11.4 12.692 6.6 18.593 6.6a10.634 10.634 0 0 1 7.572 3.14 10.638 10.638 0 0 1 3.131 7.571c-.002 5.9-4.802 10.701-10.703 10.704Zm-4.856-3.24.325.192a8.882 8.882 0 0 0 4.528 1.24h.003c4.903 0 8.894-3.991 8.896-8.896a8.842 8.842 0 0 0-2.603-6.294 8.836 8.836 0 0 0-6.29-2.61c-4.906 0-8.897 3.992-8.9 8.896 0 1.681.47 3.319 1.36 4.735l.212.336-.898 3.283 3.367-.883Zm9.882-5.16c.187.09.313.152.366.242.067.111.067.646-.155 1.271-.223.625-1.292 1.195-1.806 1.272-.46.069-1.044.098-1.684-.106a15.372 15.372 0 0 1-1.525-.563c-2.507-1.083-4.201-3.513-4.522-3.972l-.047-.067-.002-.003c-.141-.188-1.09-1.454-1.09-2.763 0-1.232.605-1.878.884-2.175.02-.02.037-.04.052-.056a.983.983 0 0 1 .714-.335 10.655 10.655 0 0 1 .572.01c.156 0 .35-.002.542.459l.295.716c.23.56.485 1.18.53 1.27.066.133.111.29.022.468l-.038.076a1.511 1.511 0 0 1-.23.37l-.137.165a4.414 4.414 0 0 1-.264.304c-.134.133-.273.277-.117.545.156.268.693 1.144 1.488 1.853a6.908 6.908 0 0 0 1.974 1.248c.073.032.133.057.177.08.267.133.423.11.579-.067.156-.179.668-.781.847-1.05.178-.267.356-.222.601-.133.246.09 1.56.736 1.828.87l.146.072Z" fill="#FDFDFD"/></g></g><defs><clipPath id="afa"><path fill="#fff" d="M0 0h36v36H0z"/></clipPath></defs></svg><svg fill="none" viewBox="0 0 78 89" id="stack--css" xmlns="http://www.w3.org/2000/svg"><path d="M6.531 79.795 0 0l78 .16-6.906 79.635L39.294 89 6.531 79.795Z" fill="#1B73BA"/><path d="M39.403 79.84V7.596l32.062.104-5.717 64.636-26.345 7.502Z" fill="#1C88C7"/><path d="M63.505 16.831H14.183l1.336 9.443h23.405l-23.03 9.707 1.335 9.128H51.16l-1.23 12.748-11.488 2.204-10.42-2.623-.801-7.24h-9.566l1.283 15.058 20.52 5.613 19.664-6.138 2.512-29.433H40.847l22.657-9.233V16.83Z" fill="#fff"/></svg><svg style="shape-rendering:geometricPrecision;text-rendering:geometricPrecision;image-rendering:optimizeQuality;fill-rule:evenodd;clip-rule:evenodd" viewBox="0 0 1000 1000" id="stack--css-new" xmlns="http://www.w3.org/2000/svg"><path style="opacity:1" fill="#639" d="M-.5-.5h858c68.905 11.068 114.405 49.734 136.5 116a371.423 371.423 0 0 1 5.5 26v716c-11.068 68.905-49.735 114.405-116 136.5a371.423 371.423 0 0 1-26 5.5h-716C72.595 988.432 27.095 949.765 5 883.5a371.107 371.107 0 0 1-5.5-26V-.5Z"/><path style="opacity:1" fill="#fefefe" d="M690.5 645.5v10h-66c.297-12.331-2.537-23.997-8.5-35-10.03-9.346-21.53-11.513-34.5-6.5-7.613 4.375-12.446 10.875-14.5 19.5-5.751 26.997 3.749 46.164 28.5 57.5 23.11 8.219 44.443 19.552 64 34 19.777 17.383 31.277 39.217 34.5 65.5 3.278 25.554.944 50.554-7 75-15.383 33.625-41.55 52.459-78.5 56.5-77.057 4.449-116.057-32.051-117-109.5h69c-.208 13.834 3.292 26.501 10.5 38 8.559 8.121 18.725 10.954 30.5 8.5 14.009-4.131 21.176-13.631 21.5-28.5 4.484-21.944-1.683-40.111-18.5-54.5a709.708 709.708 0 0 0-55-28c-16.655-8.991-30.489-21.157-41.5-36.5-6.641-12.897-10.641-26.563-12-41-5.362-33.557 1.972-63.89 22-91 16.267-17.717 36.433-27.884 60.5-30.5 60.742-6.209 97.575 20.291 110.5 79.5a91.653 91.653 0 0 1 1.5 17Zm225 2v8h-66c.295-2.235-.039-4.235-1-6 .643-12.909-3.357-24.075-12-33.5-14.584-7.437-27.75-5.603-39.5 5.5-8.541 17.275-8.541 34.608 0 52 7.101 8.102 15.601 14.268 25.5 18.5 22.947 7.969 43.947 19.303 63 34 21.883 20.272 33.383 45.439 34.5 75.5 1.888 22.674-1.112 44.674-9 66-15.861 33.371-42.361 51.537-79.5 54.5-72.164 4.676-110.497-29.157-115-101.5v-7h69c-.577 13.026 2.589 25.026 9.5 36 8.331 8.775 18.497 11.942 30.5 9.5 8.714-1.053 14.881-5.553 18.5-13.5 4.02-12.702 5.353-25.702 4-39-3.079-16.086-11.913-27.919-26.5-35.5a564.825 564.825 0 0 1-63-33c-21.817-15.118-34.317-35.951-37.5-62.5-3.858-24.655-1.525-48.655 7-72 14.616-31.913 39.45-50.079 74.5-54.5 70.373-4.798 108.04 28.035 113 98.5Z"/><path style="opacity:1" fill="#fefdfe" d="M349.5 548.5c81.617-1.046 119.95 39.287 115 121h-73a130.822 130.822 0 0 0-2.5-32c-9.538-21.624-25.038-27.457-46.5-17.5-9.004 8.856-13.504 19.689-13.5 32.5a7136.932 7136.932 0 0 0 0 169c.918 8.599 3.585 16.599 8 24 11.854 11.983 25.354 14.149 40.5 6.5 8.954-8.509 13.454-19.009 13.5-31.5.499-5.323.666-10.656.5-16h73c3.153 31.014-4.347 59.014-22.5 84-18.743 20.12-41.91 31.287-69.5 33.5-33.187 4.29-62.854-3.71-89-24-18.238-19.011-27.738-41.844-28.5-68.5-.667-62-.667-124 0-186 1.428-42.722 21.928-71.889 61.5-87.5 10.92-3.488 21.92-5.988 33-7.5Z"/><path style="opacity:1" fill="#b299cc" d="M690.5 645.5c.982 3.462 1.315 7.129 1 11-22.506.331-44.84-.003-67-1h66v-10Z"/><path style="opacity:1" fill="#b097cb" d="M915.5 647.5c.977 2.787 1.31 5.787 1 9h-68v-7c.961 1.765 1.295 3.765 1 6h66v-8Z"/><path style="opacity:1" fill="#d4c5e2" d="M785.5 813.5h-69v7c-.973-2.448-1.306-5.115-1-8 23.506-.331 46.839.002 70 1Z"/></svg><svg viewBox="0 0 598 541" id="stack--docker" xmlns="http://www.w3.org/2000/svg"><g fill="#0091e2"><path d="M592.162 277.804c-1.664-1.37-16.642-12.597-48.815-12.597-8.321 0-16.92.822-25.24 2.191-6.102-41.898-41.327-62.162-42.714-63.257l-8.598-4.93-5.547 7.942c-6.934 10.68-12.204 22.729-15.255 35.052-5.824 23.824-2.219 46.279 9.985 65.447-14.7 8.216-38.553 10.133-43.545 10.406H18.58c-10.262 0-18.583 8.216-18.583 18.348-.554 33.956 5.27 67.912 17.197 99.951 13.59 35.052 33.838 61.067 59.91 76.95 29.4 17.799 77.383 27.931 131.468 27.931 24.408 0 48.815-2.19 72.946-6.572 33.56-6.025 65.734-17.526 95.412-34.23a260.485 260.485 0 0 0 64.902-52.577c31.342-34.778 49.925-73.663 63.515-108.167h5.547c34.116 0 55.195-13.418 66.844-24.92 7.766-7.12 13.59-15.882 17.751-25.74l2.497-7.12z"/><path d="M55.193 306.83h52.698c2.497 0 4.716-1.916 4.716-4.654v-46.553c0-2.465-1.942-4.655-4.716-4.655H55.193c-2.496 0-4.715 1.916-4.715 4.655v46.553c.277 2.738 2.219 4.655 4.715 4.655zm72.668 0h52.699c2.496 0 4.715-1.916 4.715-4.654v-46.553c0-2.465-1.942-4.655-4.715-4.655h-52.7c-2.496 0-4.715 1.916-4.715 4.655v46.553c.278 2.738 2.22 4.655 4.715 4.655m74.055 0h52.699c2.496 0 4.715-1.917 4.715-4.655v-46.553c0-2.465-1.942-4.655-4.715-4.655h-52.699c-2.496 0-4.715 1.916-4.715 4.655v46.553c0 2.738 1.942 4.655 4.715 4.655zm72.946 0h52.699c2.496 0 4.715-1.917 4.715-4.655v-46.553c0-2.465-1.942-4.655-4.715-4.655h-52.699c-2.496 0-4.715 1.916-4.715 4.655v46.553c0 2.738 2.219 4.655 4.715 4.655zm-147-66.543h52.698c2.496 0 4.715-2.19 4.715-4.655V189.08c0-2.465-1.942-4.656-4.715-4.656H127.86c-2.496 0-4.715 1.917-4.715 4.656v46.553c.278 2.464 2.22 4.655 4.715 4.655m74.055 0h52.699c2.496 0 4.715-2.19 4.715-4.655V189.08c0-2.465-1.942-4.656-4.715-4.656h-52.699c-2.496 0-4.715 1.917-4.715 4.656v46.553c0 2.464 1.942 4.655 4.715 4.655m72.946 0h52.699c2.496 0 4.715-2.19 4.715-4.655V189.08c0-2.465-2.22-4.656-4.715-4.656h-52.699c-2.496 0-4.715 1.917-4.715 4.656v46.553c0 2.464 2.219 4.655 4.715 4.655m0-66.817h52.699c2.496 0 4.715-1.917 4.715-4.655v-46.553c0-2.465-2.22-4.656-4.715-4.656h-52.699c-2.496 0-4.715 1.917-4.715 4.656v46.553c0 2.464 2.219 4.655 4.715 4.655m73.5 133.36h52.699c2.496 0 4.715-1.917 4.715-4.655v-46.553c0-2.465-1.941-4.655-4.715-4.655h-52.698c-2.497 0-4.716 1.916-4.716 4.655v46.553c.278 2.738 2.22 4.655 4.716 4.655"/></g></svg><svg fill="none" viewBox="0 0 127 80" id="stack--eng" xmlns="http://www.w3.org/2000/svg"><path d="M127 0H0v80h127V0Z" fill="#2065B6"/><path d="M0 0v8.944L112.801 80H127v-8.944L14.199 0H0Zm127 0v8.944L14.199 80H0v-8.944L112.801 0H127Z" fill="#fff"/><path d="M52.917 0v80h21.166V0H52.917ZM0 26.667v26.666h127V26.667H0Z" fill="#fff"/><path d="M0 32v16h127V32H0ZM57.15 0v80h12.7V0h-12.7ZM0 80l42.333-26.667H51.8L9.466 80H0ZM0 0l42.333 26.667h-9.465L0 5.963V0Zm75.2 26.667L117.535 0H127L84.667 26.667H75.2ZM127 80 84.667 53.333h9.465L127 74.037V80Z" fill="#C00"/></svg><svg fill="none" viewBox="0 0 100 100" id="stack--git" xmlns="http://www.w3.org/2000/svg"><path d="M2.09 55.047a7.138 7.138 0 0 1 0-10.094L44.954 2.09a7.138 7.138 0 0 1 10.094 0L97.91 44.953a7.138 7.138 0 0 1 0 10.094L55.047 97.91a7.138 7.138 0 0 1-10.094 0L2.09 55.047Z" fill="#EE513B"/><path d="m36.246 10.934-4.34 4.34 11.21 11.21A7.592 7.592 0 0 0 47.32 36.79v27.424A7.592 7.592 0 0 0 50 78.906a7.59 7.59 0 0 0 3.46-14.346V36.827l10.716 10.716a7.59 7.59 0 1 0 4.583-4.098l-11.51-11.507a7.59 7.59 0 0 0-9.5-9.5L36.246 10.934Z" fill="#fff"/></svg><svg fill="none" viewBox="0 0 101 100" id="stack--github" xmlns="http://www.w3.org/2000/svg"><path d="M50.46 0c-27.613 0-50 22.738-50 50.783C.46 74.579 16.593 94.49 38.343 100c-.233-.686-.383-1.481-.383-2.467v-8.68h-6.283c-3.421 0-6.463-1.494-7.938-4.27-1.637-3.085-1.92-7.803-5.979-10.69-1.204-.96-.288-2.056 1.1-1.908 2.563.736 4.688 2.522 6.688 5.171 1.991 2.654 2.929 3.254 6.65 3.254 1.804 0 4.504-.105 7.045-.512 1.367-3.525 3.73-6.77 6.617-8.303-16.65-1.739-24.596-10.152-24.596-21.574 0-4.917 2.063-9.674 5.567-13.682-1.15-3.978-2.596-12.09.442-15.18 7.491 0 12.02 4.935 13.108 6.268a36.947 36.947 0 0 1 12.142-2.035c4.316 0 8.433.736 12.175 2.044 1.075-1.325 5.608-6.276 13.116-6.276 3.05 3.093 1.588 11.24.425 15.209 3.483 4 5.533 8.743 5.533 13.652 0 11.414-7.933 19.822-24.558 21.57 4.575 2.425 7.913 9.239 7.913 14.372v11.57c0 .44-.096.757-.146 1.134 19.483-6.936 33.479-25.726 33.479-47.884C100.46 22.738 78.073 0 50.46 0Z" fill="#fff"/></svg><svg fill="none" viewBox="0 0 82 30" id="stack--gsap" xmlns="http://www.w3.org/2000/svg"><path fill="#FFFCE1" d="M23.81 14.012v.013l-1.075 4.666c-.058.264-.322.457-.626.457H20.81a.218.218 0 0 0-.208.156c-1.198 4.064-2.82 6.857-4.962 8.534-1.822 1.428-4.068 2.094-7.069 2.094-2.696 0-4.514-.867-6.056-2.579-2.038-2.262-2.88-5.966-2.37-10.428C1.065 8.548 5.41.095 13.776.095c2.545-.022 4.543.763 5.933 2.33 1.47 1.658 2.216 4.154 2.22 7.422a.55.55 0 0 1-.549.536h-6.13a.42.42 0 0 1-.407-.41c-.05-2.26-.72-3.36-2.052-3.36-2.35 0-3.736 3.19-4.471 4.958-1.027 2.47-1.55 5.153-1.447 7.825.049 1.244.249 2.993 1.43 3.718 1.047.642 2.541.216 3.446-.495.904-.712 1.632-1.943 1.938-3.066.043-.156.046-.277.005-.331-.043-.056-.162-.069-.253-.069h-1.574a.572.572 0 0 1-.438-.202.42.42 0 0 1-.087-.362l1.076-4.674c.053-.239.27-.42.537-.452v-.012h10.33c.024 0 .049 0 .072.005.268.035.457.284.452.556h.002Z" style="opacity:1"/><path fill="#FFFCE1" d="M41.595 8.65a.548.548 0 0 1-.548.53h-5.646c-.37 0-.679-.3-.679-.665 0-1.647-.57-2.449-1.736-2.449s-1.918.716-1.94 1.967c-.025 1.395.764 2.663 3.01 4.841 2.957 2.774 4.142 5.231 4.085 8.479C38.048 26.605 34.477 30 29.043 30c-2.775 0-4.895-.742-6.305-2.206-1.431-1.487-2.087-3.669-1.95-6.485a.548.548 0 0 1 .549-.53h5.84a.55.55 0 0 1 .422.208.48.48 0 0 1 .106.384c-.065 1.016.112 1.775.512 2.195.256.272.613.41 1.058.41 1.079 0 1.711-.762 1.735-2.09.02-1.148-.343-2.154-2.321-4.189-2.555-2.496-4.846-5.075-4.775-9.13.042-2.352.976-4.503 2.631-6.057C28.295.868 30.688 0 33.466 0c2.783.02 4.892.814 6.269 2.36 1.304 1.465 1.931 3.581 1.862 6.29h-.002Zm17.5 20.362.037-27.933a.525.525 0 0 0-.529-.533h-8.738c-.294 0-.423.253-.507.42L36.706 28.841v.005l-.005.007c-.14.343.126.71.497.71h6.108c.33 0 .549-.1.656-.308l1.213-2.915c.149-.389.177-.425.601-.425h5.836c.406 0 .414.008.408.405l-.131 2.71a.525.525 0 0 0 .528.533h6.171a.523.523 0 0 0 .403-.182.458.458 0 0 0 .104-.369Zm-10.81-9.326a1.67 1.67 0 0 1-.138-.005.147.147 0 0 1-.13-.184c.012-.04.029-.095.054-.162l4.376-10.828a2.99 2.99 0 0 1 .136-.313c.071-.146.157-.156.184-.048.023.09-.502 11.118-.502 11.118-.041.413-.06.43-.467.464l-3.509-.04h-.008l.003-.002Z" style="opacity:1"/><path fill="#FFFCE1" d="M71.543.546h-4.639c-.245 0-.52.13-.584.422l-6.456 28.03a.423.423 0 0 0 .088.363.573.573 0 0 0 .437.202h5.798c.312 0 .525-.153.583-.418l.704-3.177c.05-.248-.036-.44-.258-.556a52.313 52.313 0 0 1-.312-.162l-1.005-.523-1-.522-.387-.201a.186.186 0 0 1-.103-.17.199.199 0 0 1 .2-.194l3.177.014c.95.005 1.901-.062 2.836-.234 6.58-1.215 10.95-6.485 11.076-13.656.108-6.12-3.308-9.221-10.15-9.221l-.005.003Zm-1.579 16.68h-.124c-.279 0-.328-.03-.336-.04-.005-.007 1.832-8.073 1.833-8.084.047-.233.045-.367-.099-.446-.184-.102-2.866-1.516-2.866-1.516a.189.189 0 0 1-.101-.172.197.197 0 0 1 .197-.192h4.241c1.32.04 2.056 1.221 2.021 3.238-.061 3.491-1.721 7.09-4.766 7.213Z" style="opacity:1;translate:none;rotate:none;scale:none;transform-origin:0 0" data-svg-origin="59.853851318359375 0.5430021286010742"/></svg><svg fill="none" viewBox="0 0 80 90" id="stack--gulp" xmlns="http://www.w3.org/2000/svg"><rect width="80" height="90" rx="8" fill="#EE513B"/><path d="m51.855 82.312.943-13.239 2.604-3.744s-5.927 2.042-15.85 2.042c-9.922 0-15.76-2.005-15.76-2.005l2.919 4.085 1.032 12.86c0 1.38 5.398 2.497 12.056 2.497 6.659 0 12.056-1.117 12.056-2.496ZM48.88 20.49l1.98-6.592L61.822 4.18l-2.89-2.073-11.605 10.35-2.298 7.876a182.908 182.908 0 0 0-5.192-.073c-12.223 0-22.132 1.174-22.132 2.62 0 1.448 9.909 2.622 22.132 2.622s22.132-1.174 22.132-2.621c0-1.066-5.374-1.983-13.089-2.393Z" fill="#fff"/><path d="M47.728 24.182s-.43.081-1.69.086c-1.262.004-2.157-.007-2.514-.28a.436.436 0 0 1-.148-.319c.001-.188.16-.299.361-.368l.191.252c-.083.024-.13.053-.13.083 0 .143 1.29.24 2.277.23.987-.01 2.18-.078 2.18-.22 0-.042-.09-.082-.246-.114l.19-.25c.256.067.479.196.478.42-.002.38-.577.438-.95.48ZM61.8 4.201c.276-.268-.142-.954-.933-1.532-.792-.578-1.658-.828-1.934-.56-.276.268.143.954.935 1.531.791.578 1.657.83 1.933.561ZM51.33 49.974c-.26-2.106 5.468-5.155 3.998-5.253-3.165.152-4.74 3.124-6.331 6.236-.584 1.14-2.58 6.004-3.89 5.405-1.308-.598 1.698-4.598 2.54-6.973-.972.6-4.537 2.934-5.456.749-1.477 1.057-4.633 1.63-4.277-1.147-.786 1.173-2.55 2.81-4.667 2.13-2.78-.894 1.611-8.354 2.703-7.978 1.092.377-.22 2.076-.564 2.736-.756 1.452-1.63 3.278-1.046 3.652 1 .64 3.72-2.422 3.78-2.49.508-.566 1.957-4.27 3.125-3.844 1.168.425-2.913 5.315-1.387 6.285.308.196 1.567-.12 2.333-.818.496-.452.325-1.452 1.977-4.771 1.653-3.32 3.125-7.453 4.258-7.138 1.133.315.2 2.436-.207 3.227-1.908 3.712-5.206 9.844-3.65 9.38 1.555-.464 2.365-.492 3.888-1.993 1.523-1.502 1.453-3.975 2.468-3.922 1.016.052.846.845.6 1.45.998-.964 4.736-2.993 5.638-.984 1.069 2.38-5.347 5.815-3.747 5.64 1.56-.17 4.086-1.519 5.165-2.745l2.97-22.49s-2.989 2.083-22 2.083c-19.01 0-21.69-2.04-21.69-2.04L20.39 44.89c1.342-3.212 4.529-9.711 9.552-9.493 2.285.1 5.335 3.806 2.722 3.931-1.106.053-1.218-1.85-2.528-2.13-.945-.201-2.26.446-3.111 1.147-1.696 1.398-5.343 6.914-4.861 9.664.614 3.506 5.743-1.218 6.611-2.62.611-.988 1.024-3.916 2.36-3.609 1.338.307-.116 3.328-1.085 6-1.088 2.999-1.66 6.162-3.025 5.798-1.364-.363.858-4.235.778-4.913-1.283.996-3.646 3.52-6.668 2.27l1.57 12.749s4.173 2.777 16.744 2.777c12.57 0 16.898-2.734 16.898-2.734l1.95-14.765c-1.595 1.309-6.644 3.632-6.967 1.013Z" fill="#fff"/></svg><svg fill="none" viewBox="0 0 78 89" id="stack--html" xmlns="http://www.w3.org/2000/svg"><path d="M39 81.66V7.34l32.5.108-5.796 66.494L39 81.66Z" fill="#EF652A"/><path d="M6.531 79.795 0 0l78 .16-6.906 79.635L39.294 89 6.531 79.795Z" fill="#E34F26"/><path d="M39.494 81.998V7.756l33.685.108-6.007 66.424-27.678 7.71Z" fill="#F1714D"/><path d="m62.463 26.273.912-9.757H13.812l2.739 29.915h34.205L49.415 59.19 38.46 62.138 27.345 58.92l-.59-7.612h-9.828l1.343 15.547 20.19 5.629 20.35-5.63 2.74-30.343H25.625l-1.02-10.239h37.857Z" fill="#fff"/></svg><svg fill="none" viewBox="0 0 79 89" id="stack--js" xmlns="http://www.w3.org/2000/svg"><path d="M7.276 79.795.745 0l78 .16-6.907 79.635L40.04 89 7.276 79.795Z" fill="#E9CA32"/><path d="M40.04 81.293V7.6l32.12.107-5.728 65.934-26.393 7.653Z" fill="#FFDE25"/><path d="M36.6 16.35h-8.493V65.4l-6.604-1.259V57.54l-7.863-1.26v14.778l22.96 5.974V16.35Zm6.37 0h23.508l-1.572 9.401H51.944v15.427h12.962l-1.573 31.138-20.364 4.716v-9.746l13.76-4.717.794-12.89-14.554 2.106V16.35Z" fill="#fff"/></svg><svg fill="none" viewBox="0 0 512 512" id="stack--nuxt" xmlns="http://www.w3.org/2000/svg"><path d="M281.44 397.667h156.88c5.006 0 9.798-1.759 14.133-4.24 4.336-2.481 8.805-5.596 11.307-9.894 2.502-4.297 4.242-9.173 4.24-14.134-.002-4.962-1.734-9.836-4.24-14.131l-106-182.321c-2.502-4.297-5.559-7.413-9.893-9.894-4.335-2.48-10.542-4.24-15.547-4.24-5.005 0-9.799 1.76-14.133 4.24-4.335 2.481-7.392 5.597-9.894 9.894l-26.853 46.64-53.707-90.457c-2.504-4.296-5.557-8.823-9.893-11.303-4.336-2.481-9.127-2.827-14.133-2.827-5.006 0-9.798.346-14.134 2.827-4.335 2.48-8.802 7.007-11.306 11.303L46.827 355.268c-2.506 4.295-2.825 9.169-2.827 14.131-.002 4.961.325 9.836 2.827 14.134 2.502 4.297 6.97 7.413 11.306 9.894 4.336 2.481 9.127 4.24 14.134 4.24H171.2c39.201 0 67.734-17.585 87.627-50.88L306.88 263.4l25.44-43.813 77.733 132.853H306.88l-25.44 45.227ZM169.787 352.44h-69.254l103.174-178.08L256 263.4l-34.639 60.384c-13.21 21.603-28.272 28.656-51.574 28.656Z" fill="#00DC82"/></svg><svg viewBox="0 0 256 331" id="stack--pinia" xmlns="http://www.w3.org/2000/svg"><defs><linearGradient id="ara" x1="55.342%" x2="42.817%" y1="0%" y2="42.863%"><stop offset="0%" stop-color="#52ce63"/><stop offset="100%" stop-color="#51a256"/></linearGradient><linearGradient id="arb" x1="55.349%" x2="42.808%" y1="0%" y2="42.863%"><stop offset="0%" stop-color="#52ce63"/><stop offset="100%" stop-color="#51a256"/></linearGradient><linearGradient id="arc" x1="50%" x2="50%" y1="0%" y2="58.811%"><stop offset="0%" stop-color="#8ae99c"/><stop offset="100%" stop-color="#52ce63"/></linearGradient><linearGradient id="ard" x1="51.378%" x2="44.585%" y1="17.473%" y2="100%"><stop offset="0%" stop-color="#ffe56c"/><stop offset="100%" stop-color="#ffc63a"/></linearGradient></defs><path fill="url(#ara)" d="M67.56 173.328c30.366-2.985 41.08-27.648 44.735-64.823 3.654-37.175-21.174-70.814-31.502-69.799s-43.15 40.322-46.805 77.497c-3.654 37.175 3.205 60.11 33.572 57.125" transform="rotate(-38 72.877 106.136)"/><path fill="url(#arb)" d="M184.454 186.277c30.367 2.986 36.394-20.032 32.74-57.207-3.655-37.175-35.645-76.4-45.973-77.415s-35.989 32.542-32.334 69.717 15.201 61.92 45.567 64.905" transform="rotate(52 178.34 119.085)"/><path fill="url(#arc)" d="M129.232 151.601c27.341 0 34.878-26.184 34.878-67.013S138.531 3.745 129.232 3.745 93.605 43.758 93.605 84.588c0 40.829 8.286 67.013 35.627 67.013" transform="rotate(7 128.858 77.673)"/><path fill="url(#ard)" d="M113.386 330.307c56.896 0 103.038-16.528 103.038-91.482s-46.142-136.462-103.038-136.462c-56.897 0-103.002 61.507-103.002 136.462s46.105 91.482 103.002 91.482"/><ellipse cx="165.427" cy="216.677" fill="#eaadcc" rx="14.717" ry="6.845"/><ellipse cx="57.273" cy="212.57" fill="#eaadcc" rx="14.717" ry="6.845" transform="rotate(7 57.273 212.57)"/><path d="M96.266 210.285a2.054 2.054 0 1 0-3.406 2.295c3.151 4.676 7.997 7.39 14.373 8.119 6.348.725 12.016-.902 16.877-4.852a2.054 2.054 0 1 0-2.59-3.187c-3.999 3.249-8.563 4.559-13.82 3.958-5.23-.598-8.986-2.7-11.434-6.333M65.818 178.63a14.67 14.67 0 0 1 10.551 3.945 14.67 14.67 0 0 1 4.672 10.25 14.67 14.67 0 0 1-3.945 10.55 14.67 14.67 0 0 1-10.25 4.672 14.67 14.67 0 0 1-10.551-3.945 14.67 14.67 0 0 1-4.67-10.25 14.67 14.67 0 0 1 3.944-10.55 14.67 14.67 0 0 1 10.249-4.672"/><path fill="#fff" d="M66.59 190.932a4.792 4.792 0 1 0-9.578.336 4.792 4.792 0 0 0 9.579-.336"/><path d="M154.99 182.366a14.67 14.67 0 0 1 10.552 3.944 14.67 14.67 0 0 1 4.67 10.25 14.67 14.67 0 0 1-3.944 10.551 14.67 14.67 0 0 1-10.25 4.671 14.67 14.67 0 0 1-10.55-3.945 14.67 14.67 0 0 1-4.672-10.25 14.67 14.67 0 0 1 3.945-10.55 14.67 14.67 0 0 1 10.25-4.671"/><path fill="#fff" d="M65.71 175.552c9.824-.343 18.066 7.342 18.409 17.165s-7.342 18.065-17.166 18.408-18.064-7.342-18.407-17.166c-.343-9.823 7.341-18.064 17.164-18.407m12.252 17.38c-.224-6.423-5.613-11.448-12.037-11.223-6.422.224-11.447 5.612-11.222 12.035.224 6.424 5.612 11.448 12.035 11.224s11.448-5.612 11.224-12.036m76.921-13.645c9.824-.343 18.065 7.342 18.408 17.165s-7.342 18.065-17.165 18.408-18.065-7.342-18.408-17.165 7.342-18.065 17.165-18.408m12.251 17.38c-.224-6.423-5.612-11.447-12.036-11.223s-11.448 5.613-11.223 12.036 5.612 11.448 12.035 11.224c6.424-.225 11.448-5.613 11.224-12.037"/><path fill="#fff" d="M155.763 194.668a4.792 4.792 0 1 0-9.578.335 4.792 4.792 0 0 0 9.578-.335"/><path fill="#ecb732" d="m38.083 243.16 22.33 23.235 16.022-17.044a3.765 3.765 0 0 1 5.486 5.157l-16.283 17.324 23.1 24.036a3.765 3.765 0 1 1-5.43 5.218l-22.834-23.761-10.725 11.41a3.765 3.765 0 1 1-5.486-5.158l10.986-11.688-22.595-23.511a3.765 3.765 0 1 1 5.43-5.218m149.956 0a3.765 3.765 0 1 1 5.429 5.218l-22.596 23.511 10.988 11.688a3.765 3.765 0 0 1-.042 5.201l-.123.121a3.765 3.765 0 0 1-5.322-.165l-10.725-11.41-22.834 23.762a3.765 3.765 0 0 1-5.197.222l-.127-.116a3.765 3.765 0 0 1-.105-5.324l23.1-24.036-16.284-17.324a3.765 3.765 0 0 1 .042-5.2l.123-.121a3.765 3.765 0 0 1 5.321.164l16.021 17.044z"/><path fill="#ffc73b" d="M136.602 126.74a3.765 3.765 0 0 1 0 5.323l-17.53 17.531 10.684 10.686a3.765 3.765 0 0 1 .12 5.2l-.12.125a3.765 3.765 0 0 1-5.324 0l-10.686-10.686-10.686 10.686a3.765 3.765 0 1 1-5.324-5.325l10.685-10.686-17.53-17.53a3.765 3.765 0 0 1-.12-5.2l.12-.125a3.765 3.765 0 0 1 5.324 0l17.531 17.53 17.531-17.53a3.765 3.765 0 0 1 5.325 0"/></svg><svg fill="none" viewBox="0 0 98 108" id="stack--pug" xmlns="http://www.w3.org/2000/svg"><g clip-path="url(#asa)"><path d="M82.228 42.947c-.153-3.713.306-7.003-1.225-9.788-3.675-6.918-12.862-10.968-31.237-10.968s-28.022 4.05-31.697 11.053c-1.455 2.869-1.302 6.075-1.531 9.787-.154 2.953-1.379 6.075-.843 9.45.613 4.388.843 8.775 1.455 12.825.46 3.29 4.594 6.075 4.977 9.197 1.072 8.606 9.187 12.572 27.562 12.572v.675h-.46.537v-.675c18.375 0 26.184-3.966 27.18-12.572.382-3.206 4.21-5.906 4.67-9.197.612-4.05.842-8.437 1.454-12.825.536-3.375-.689-6.58-.842-9.534Z" fill="#EFCCA3"/><path d="M49.46 45.984c3.291.085 5.588 2.363 7.732 4.472 2.527 2.447 6.814 4.135 8.575 6.244 1.761 2.11 4.058 4.219 4.9 7.51.842 3.29 1.072 7.509 1.072 8.606 0 1.096.536.843 2.067 0 3.599-1.941 7.58-7.172 7.58-7.172-.46 3.29-4.364 6.243-4.747 9.365-.919 8.607-8.498 12.741-27.256 12.741h-.077.46" fill="#CCAC8D"/><path d="M61.556 39.403c.69 2.616 3.14 11.475-1.608 8.522 0 0 1.99 1.266 3.216 6.075 1.301 4.81 4.44 5.4 4.44 5.4s5.13 1.097 8.958-2.531c3.216-3.038 3.752-8.438 2.374-12.572-1.378-4.05-3.828-5.316-7.427-6.16-3.598-.928-10.795-1.687-9.953 1.266Z" fill="#CCAC8D"/><path d="M70.667 56.447c3.721 0 6.738-3.324 6.738-7.425 0-4.1-3.017-7.425-6.738-7.425-3.72 0-6.737 3.324-6.737 7.425 0 4.1 3.016 7.425 6.737 7.425Z" fill="#000"/><path d="M68.906 47.672c.973 0 1.761-.87 1.761-1.94 0-1.073-.788-1.941-1.76-1.941-.973 0-1.761.868-1.761 1.94s.788 1.94 1.76 1.94Z" fill="#fff"/><path d="M60.408 48.684s6.048 4.557 9.34 9.029c3.292 4.471 3.216 5.315 3.216 5.315L70.59 64.21s-3.368-7.003-7.503-9.618c-4.21-2.616-4.67-4.81-4.67-4.81l1.99-1.097Z" fill="#EFCCA3"/><path d="M49.69 45.984c-3.293.085-5.743 2.363-7.963 4.472-2.527 2.447-6.968 4.135-8.729 6.244-1.76 2.11-4.134 4.219-4.976 7.51-.842 3.29-1.149 7.509-1.149 8.606 0 1.096.154 1.18-2.067 0-3.598-1.857-7.58-7.172-7.58-7.172.46 3.29 4.365 6.243 4.747 9.365 1.072 8.607 8.652 12.741 27.41 12.741h.383" fill="#CCAC8D"/><path d="M67.451 60.244c-3.674-4.978-9.57-9.619-17.762-9.619h-.077c-8.192 0-14.087 4.64-17.762 9.619-3.828 5.147-3.522 7.172-3.522 12.065 0 17.72 5.666 12.657 9.417 14.85 3.828 2.11 7.81 1.435 11.867 1.435h.077c4.134 0 8.04.59 11.867-1.519 3.752-2.11 9.417 3.122 9.417-14.597.077-4.894.307-7.087-3.522-12.234Z" fill="#56332B"/><path d="M49.306 55.013s-.536 8.184-1.608 9.787l1.99-.506-.382-9.281Z" fill="#442823"/><path d="M49.842 55.013s.536 8.184 1.608 9.787l-1.99-.506.382-9.281Z" fill="#442823"/><path d="M43.411 53.072c-.766-1.94 1.99-5.063 6.355-5.147 4.364 0 7.12 3.122 6.355 5.147-.766 2.025-3.522 2.615-6.355 2.7-2.756-.084-5.59-.675-6.355-2.7Z" fill="#56332B"/><path d="M49.766 55.013c0-.338 2.603-.422 3.98-1.435 0 0-2.832 1.013-3.445.59-.612-.337-.765-1.35-.765-1.35s-.23 1.013-.69 1.35c-.535.338-3.75-.59-3.75-.59s4.287 1.181 4.287 1.435c0 .253-.077 1.096-.077 1.687 0 2.11 0 7.34.306 7.763.46.759.307-5.653.307-7.763-.077-.675-.077-1.35-.153-1.687Z" fill="#000"/><path d="M49.919 66.319c1.301 0 3.598 1.012 5.665 2.615-1.99-2.447-4.364-4.134-5.665-4.134-1.378 0-4.288 1.856-6.355 4.556 2.144-1.856 4.9-3.037 6.355-3.037Z" fill="#7F4A41"/><path d="M49.383 81.253c-2.91 0-5.742-1.013-8.346-1.772-.535-.169-1.071.253-1.607.085-4.824-1.688-8.728-4.557-11.102-8.185v.844c0 17.719 5.666 12.74 9.417 14.85 3.828 2.11 7.81 1.434 11.867 1.434h.077c4.134 0 8.04.59 11.867-1.519 3.752-2.109 9.417 3.038 9.417-14.68 0-.676 0-1.35.077-1.941-2.22 3.965-6.278 7.087-11.331 8.943-.46.17-1.532-.253-1.99-.168-2.757 1.012-5.207 2.109-8.346 2.109Z" fill="#442823"/><path d="M42.11 71.719s-1.915 6.328-.613 9.112l-1.761-.844s1.301-6.412 2.373-8.268Zm15.159 0s1.914 6.328.612 9.112l1.761-.844s-1.378-6.412-2.373-8.268Z" fill="#442823"/><path d="M37.21 39.403c-.69 2.616-3.14 11.475 1.607 8.522 0 0-1.99 1.266-3.216 6.075-1.225 4.81-4.44 5.4-4.44 5.4s-5.13 1.097-8.958-2.531c-3.216-3.038-3.752-8.438-2.373-12.572 1.378-4.134 3.828-5.316 7.426-6.16 3.599-.928 10.719-1.687 9.953 1.266Z" fill="#CCAC8D"/><path d="M49.69 64.8c2.066 0 8.498 4.894 8.574 10.884v-.337c0-6.244-5.206-11.222-8.575-11.222-3.368 0-8.575 5.063-8.575 11.222v.337c.077-5.99 6.508-10.884 8.575-10.884Z" fill="#000"/><path d="M51.36 53.118c.328-.093.465-.717.307-1.394-.159-.677-.553-1.15-.88-1.057-.328.093-.465.717-.306 1.394.158.677.552 1.15.88 1.057Zm-3.935-.013c.323.11.737-.341.925-1.009.188-.667.079-1.298-.245-1.408-.323-.11-.737.34-.925 1.008-.188.668-.078 1.299.245 1.41Z" fill="#331712"/><path d="M28.481 56.447c3.721 0 6.738-3.324 6.738-7.425 0-4.1-3.017-7.425-6.738-7.425-3.72 0-6.737 3.324-6.737 7.425 0 4.1 3.016 7.425 6.737 7.425Z" fill="#000"/><path d="M30.242 47.672c.973 0 1.761-.87 1.761-1.94 0-1.073-.788-1.941-1.76-1.941-.973 0-1.762.868-1.762 1.94s.789 1.94 1.761 1.94Z" fill="#fff"/><path d="M51.68 49.106c0-.084-1.761.844-2.22.928-.46-.084-2.22-1.012-2.22-.928h4.44Z" fill="#7F4A41"/><path d="M38.281 48.684s-6.048 4.557-9.34 9.029c-3.293 4.471-3.216 5.315-3.216 5.315l2.373 1.181s3.369-7.003 7.503-9.618c4.135-2.616 4.67-4.81 4.67-4.81l-1.99-1.097Z" fill="#EFCCA3"/><path d="M25.036 35.184s-2.067 6.244-6.661 8.86c0 0 7.197-.928 6.66-8.86Zm48.31 0s2.068 6.244 6.662 8.86c0 0-7.197-.928-6.661-8.86Zm-13.09 11.644s-4.518-5.231-10.566-5.4h.153c-6.125.169-10.565 5.4-10.565 5.4 5.282-4.05 9.8-3.966 10.565-3.966-.076 0 5.13-.084 10.413 3.966ZM54.972 35.86s-2.297-3.543-5.36-3.628h.154c-2.297.085-5.283 3.628-5.283 3.628 2.603-2.784 5.283-2.7 5.283-2.7s2.526-.084 5.206 2.7Zm-26.49 25.903s-3.6 1.941-6.202.76h-.077c-2.297-1.435-3.445-5.738-3.445-5.738s2.297 7.594 9.723 4.978Zm41.956 0s3.598 1.941 6.201.76c3.063-1.435 3.522-5.738 3.522-5.738s-2.297 7.594-9.724 4.978Z" fill="#CCAC8D"/><path d="M32.616 34.762c1.99-.422 5.282-.506 7.886.422 3.292 1.266.612 5.907 1.301 6.16.69.253 1.608-3.207 7.733-2.87 6.201.338 6.89 3.376 7.733 2.87.842-.507-.842-8.438 8.422-6.582 0 0-9.724-2.868-9.264 4.894 0 0-5.59-4.725-13.399-.506.077 0 2.067-7.256-10.412-4.388Zm33.917 0c.153 0 .23.085.306.085.077 0-.076-.085-.306-.085ZM29.936 24.384s-8.269 11.475-9.494 15.863c-1.225 4.472-2.144 22.781-3.215 25.397l-3.829-18.057 7.044-18.815 9.494-4.388Zm38.894 0s8.268 11.475 9.493 15.863c1.225 4.472 2.144 22.781 3.216 25.397l3.828-18.057-7.044-18.815-9.493-4.388Z" fill="#CCAC8D"/><path d="M68.447 24.384s8.881 8.185 11.484 17.635c2.604 9.45 1.532 20.925 3.522 22.36 2.833 2.024 6.049-10.042 7.12-11.307 1.685-2.025 7.274-7.172 7.657-8.1.383-.928-11.331-15.019-16.461-17.803-6.202-3.207-13.858-3.46-13.322-2.785Z" fill="#56332B"/><path d="M76.026 29.447s10.49 14.765 10.336 33.16l4.211-9.45c-.076 0-3.751-12.066-14.547-23.71Z" fill="#442823"/><path d="M29.936 24.384S21.055 32.57 18.452 42.02c-2.604 9.45-1.532 20.925-3.522 22.36-2.833 2.024-6.049-10.042-7.12-11.307C6.124 51.047.535 45.9.152 44.972c-.383-.928 11.332-15.019 16.461-17.803 6.202-3.207 13.858-3.46 13.322-2.785Z" fill="#56332B"/><path d="M22.356 29.447S11.867 44.212 12.02 62.607l-4.134-9.45s3.675-12.066 14.47-23.71Z" fill="#442823"/><path d="M16.69 62.944s.766 4.556 1.991 5.99c1.225 1.435.383-1.096.383-1.096s-1.302-.76-1.072-6.582c.23-5.822-1.302 1.688-1.302 1.688Zm65.308 0s-.765 4.556-1.99 5.99c-1.225 1.435-.383-1.096-.383-1.096s1.301-.76 1.072-6.582c-.23-5.822 1.301 1.688 1.301 1.688Z" fill="#CCAC8D"/><path d="M41.727 60.16c.338 0 .612-.303.612-.676 0-.373-.274-.675-.612-.675-.338 0-.613.303-.613.675 0 .373.275.675.613.675Zm-3.522 4.05c.338 0 .612-.303.612-.676 0-.372-.274-.675-.612-.675-.338 0-.613.303-.613.675 0 .373.275.675.613.675Zm-1.149-4.05c.339 0 .613-.303.613-.676 0-.373-.274-.675-.613-.675-.338 0-.612.303-.612.675 0 .373.274.675.612.675Zm19.6 0c.339 0 .613-.303.613-.676 0-.373-.274-.675-.613-.675-.338 0-.612.303-.612.675 0 .373.274.675.612.675Zm3.522 4.05c.339 0 .613-.303.613-.676 0-.372-.274-.675-.613-.675-.338 0-.612.303-.612.675 0 .373.274.675.612.675Zm1.149-4.05c.338 0 .612-.303.612-.676 0-.373-.274-.675-.612-.675-.338 0-.613.303-.613.675 0 .373.275.675.613.675Z" fill="#442823"/></g><defs><clipPath id="asa"><path fill="#fff" d="M0 0h98v108H0z"/></clipPath></defs></svg><svg fill="none" viewBox="0 0 88 94" id="stack--scss" xmlns="http://www.w3.org/2000/svg"><path d="M75.755 53.977c-3.077.025-5.742 1.078-7.976 2.646-.825-2.327-1.65-4.36-1.788-5.879-.154-1.763-.343-2.841-.154-4.948.189-2.106 1.048-5.095 1.048-5.34-.017-.22-.19-1.298-1.96-1.323-1.77-.024-3.3.49-3.472 1.152a37.8 37.8 0 0 0-.739 3.747c-.31 2.303-3.54 10.46-5.38 14.747-.602-1.666-1.117-3.136-1.22-4.312-.155-1.763-.344-2.841-.155-4.948.189-2.106 1.048-5.095 1.048-5.34-.017-.22-.189-1.298-1.959-1.322-1.77-.025-3.3.49-3.472 1.15-.172.662-.361 2.23-.74 3.749-.36 1.518-4.658 15.138-5.775 18.69a92.805 92.805 0 0 1-1.426 4.237c-.361.98-.018.074-.052.172-.31.832-.481 1.298-.481 1.298v.025c-.241.612-.499 1.2-.62 1.2-.085 0-.257-1.641.035-3.895.636-4.728 2.183-12.1 2.166-12.37 0-.122.292-1.42-.997-2.082-1.255-.661-1.702.44-1.805.44-.103 0-.19.393-.19.393s1.393-8.304-2.663-8.304c-2.544 0-6.05 3.944-7.787 7.545-1.1.857-3.438 2.67-5.913 4.605-.945.735-1.925 1.518-2.853 2.229l-.19-.295C15.37 54.174 6.278 48.882 6.656 38.84c.137-3.65 1.031-13.276 17.464-24.936 13.459-9.553 24.236-6.932 26.11-1.102 2.664 8.328-5.758 23.81-19.75 26.038-5.329.858-8.13-2.082-8.835-3.184-.74-1.151-.842-1.2-1.117-.98-.447.343-.172 1.372 0 1.984.412 1.544 2.131 4.287 5.053 5.659 2.561 1.2 8.818 1.861 16.381-2.303 8.474-4.678 15.092-17.66 13.15-28.512C53.134.455 40.277-3.17 28.124 2.978 20.887 6.653 13.05 12.385 7.411 19.905.707 28.82-.359 36.61.09 39.844 1.653 51.38 12.809 58.9 17.278 64.46c-.224.172-.43.343-.62.49-2.234 1.568-10.742 7.912-12.874 14.624-2.406 7.593.378 13.056 2.235 13.79 5.741 2.279 11.62-1.812 14.8-8.548 3.162-6.736 2.784-15.481 1.323-19.474l-.052-.147 1.754-1.47a103.098 103.098 0 0 1 3.231-2.596c-.55 2.13-.945 4.654-1.151 8.328-.24 4.312.997 9.896 2.63 12.1.722.956 1.581.98 2.114.98 1.89 0 2.75-2.229 3.696-4.898 1.168-3.258 2.2-7.03 2.2-7.03s-1.29 10.214 2.234 10.214c1.29 0 2.579-2.376 3.163-3.6v.024s.034-.074.103-.245c.072-.152.141-.307.206-.466v-.049c.516-1.273 1.668-4.188 3.387-9.014 2.217-6.222 4.349-14.011 4.349-14.011s.206 1.91.842 5.046c.378 1.862 1.203 3.895 1.839 5.879-.516 1.029-.825 1.617-.825 1.617l.017.024a71.478 71.478 0 0 1-1.358 2.45c-1.753 2.988-3.85 6.393-4.125 7.373-.327 1.151-.258 2.008.378 2.695.464.49 1.29.587 2.166.49 1.581-.148 2.681-.71 3.231-1.054.86-.44 1.84-1.102 2.785-2.082 1.719-1.813 2.767-4.385 2.664-7.814-.051-1.886-.481-3.748-1.014-5.511.155-.319.31-.637.464-.98 2.716-5.659 4.813-11.88 4.813-11.88s.206 1.91.842 5.046c.327 1.592.98 3.331 1.565 5.046-2.544 2.964-4.143 6.393-4.693 8.647-1.014 4.164-.224 6.05 1.272 6.491.67.196 1.633-.245 2.355-.686.894-.416 1.976-1.127 2.974-2.18 1.718-1.813 3.369-4.335 3.283-7.74-.052-1.568-.344-3.111-.74-4.581 2.166-1.274 4.968-2.009 8.526-1.396 7.65 1.274 9.162 8.083 8.87 10.925-.292 2.841-1.89 4.409-2.424 4.899-.533.465-.705.637-.653.98.069.514.31.49.773.392.636-.147 4.023-2.327 4.16-7.57.207-6.736-4.28-14.085-12.238-14.012ZM16.762 82.318c-2.527 3.944-6.085 5.438-7.598 4.165-1.633-1.348-.997-7.153 2.115-11.342 1.89-2.547 4.348-4.899 5.964-6.344.361-.318.911-.784 1.565-1.347.103-.098.171-.147.171-.147.12-.098.258-.22.396-.343 1.151 5.977.051 11.219-2.613 15.358ZM35.24 64.412c-.877 3.062-2.733 10.925-3.85 10.484-.963-.367-1.547-6.32-.19-12.198.688-2.964 2.15-6.492 3.009-7.864 1.392-2.204 2.905-2.939 3.283-2.033.447 1.176-1.702 9.7-2.252 11.611Zm15.247 10.386c-.378.27-.722.466-.877.319-.12-.098.155-.465.155-.465s1.908-2.915 2.664-4.263c.43-.783.945-1.69 1.495-2.718v.293c0 3.528-2.371 5.879-3.437 6.834Zm11.757-3.82c-.275-.295-.24-1.201.688-4.043.36-1.126 1.186-3.013 2.612-4.8.172.734.275 1.444.258 2.106-.017 4.41-2.217 6.05-3.558 6.736Z" fill="#CF649A"/></svg><svg fill="none" viewBox="0 0 133 132" id="stack--setting" xmlns="http://www.w3.org/2000/svg"><path d="M99.439 85.7c.89-1.44 1.781-2.879 2.542-4.635.762-1.755 1.205-3.389 1.648-5.022l13.118-2.653c1.181-.27 2.2-1.392 2.005-2.781l-2.801-20.513c-.195-1.39-1.124-2.313-2.528-2.14l-13.381.191a43.957 43.957 0 0 0-6.41-8.518l4.119-12.556c.252-1.195-.262-2.46-1.381-2.946l-19.248-8.352c-1.119-.486-2.619-.093-3.095 1.004L67.67 28.364c-3.704-.043-7.28.231-10.6 1.138l-9-9.903c-.928-.925-2.461-1.068-3.29-.385L28.11 31.28c-1.148.806-1.272 2.317-.662 3.364l7.024 11.393c-.89 1.439-1.78 2.878-2.543 4.634-.761 1.756-1.204 3.389-1.647 5.022l-13.566 2.459c-1.181.27-2.2 1.392-2.005 2.781l2.577 20.416c.196 1.39 1.124 2.314 2.529 2.14l13.38-.192a43.961 43.961 0 0 0 6.41 8.519l-4.118 12.556c-.252 1.195.262 2.461 1.38 2.946l19.248 8.352c1.12.485 2.62.093 3.096-1.004l6.356-11.585c3.705.043 7.28-.231 10.6-1.138l9 9.903c.928.924 2.462 1.068 3.29.385l16.671-12.065c1.147-.806 1.271-2.317.662-3.364L99.439 85.7Zm-42.342 1.968c-12.31-5.34-18.096-19.587-12.858-31.657 5.237-12.07 19.594-17.577 31.903-12.236 12.31 5.342 18.096 19.587 12.859 31.658-5.238 12.07-19.594 17.577-31.904 12.235Z" fill="#607D8B"/><path d="M78.046 39.386c-14.77-6.41-31.999.198-38.284 14.682-6.285 14.485.659 31.58 15.43 37.99 14.771 6.409 32-.199 38.284-14.683 6.285-14.485-.658-31.58-15.43-37.99ZM61.858 76.695c-6.267-2.72-9.095-9.684-6.43-15.829 2.667-6.145 9.686-8.837 15.953-6.118 6.266 2.72 9.095 9.684 6.429 15.83-2.667 6.144-9.685 8.836-15.952 6.117Z" fill="#455A64"/></svg><svg viewBox="0 0 129 129" id="stack--swiper" xmlns="http://www.w3.org/2000/svg"><path d="M97.922 10.346c18.251 11.274 30.413 31.461 30.413 54.489 0 35.346-28.654 64-64 64a63.81 63.81 0 0 1-21.94-3.862l-.73-.272 1.19-.383 1.53-.501.755-.253.748-.253 1.476-.508 1.449-.512 1.422-.515 1.394-.518.688-.261 1.354-.524c1.43-.56 2.815-1.127 4.153-1.7l.995-.43 1.22-.541c.535-.242 1.063-.484 1.583-.728l.774-.366 1.139-.553.559-.277.552-.279 1.085-.56c9.106-4.776 15.292-9.965 18.577-15.654 6.96-12.054.881-24.935-16.566-38.067l-1.42-1.064-.863-.662-.837-.656-.813-.652-.787-.646-.384-.321-.379-.32-.738-.637-.537-.474-.523-.472-.676-.624-.652-.62-.628-.614-.304-.305-.299-.305-.579-.605c-6.897-7.332-8.437-13.608-5.306-19.032 1.594-2.76 4.357-5.474 8.284-8.117l.477-.317.751-.483c.34-.214.687-.428 1.042-.642l.538-.32.83-.478.855-.476.659-.356.673-.355.921-.472a87.41 87.41 0 0 1 2.167-1.055l.752-.35 1.025-.464.522-.232 1.064-.46.542-.23 1.104-.459.56-.228 1.143-.455.581-.227 1.182-.452 1.207-.45.613-.223 1.247-.447 1.272-.444 1.299-.441.659-.22 1.337-.438 1.364-.436 1.389-.433 1.415-.431 1.442-.429 1.838-.531 1.879-.528 2.308-.628.964-.256ZM64.335.835c7.783 0 15.242 1.39 22.141 3.933l.737.277-.467.142-2.28.703-.746.236-1.473.474-1.446.479-1.419.482-1.392.486-1.365.49-.673.246-1.652.62-1.61.627-1.259.505-.619.254-1.218.512C57.147 16.605 48.99 22.553 45.09 29.309c-6.809 11.793-.633 24.506 16.816 37.634l1.42 1.065.862.662.837.657.41.327.799.65.582.484.57.482.736.638.36.318.699.631c.381.35.752.698 1.11 1.043l.53.516.763.77.725.761c6.867 7.383 8.335 13.785 5.072 19.438-2.112 3.657-6.144 7.258-12.086 10.753l-.546.318-.884.5-.91.5a83.75 83.75 0 0 1-1.576.829l-.815.412-1.003.494-1.029.492-1.055.49-.537.246-1.094.487-1.121.487-1.147.484-.584.241-1.186.482-.603.24-.61.24-1.238.478-1.266.476-1.29.474-1.318.472-1.344.47-.682.234-1.383.467-.701.232-1.423.464-1.448.461-1.848.574-1.889.57-1.54.454-2.15.618C12.643 108.29.336 88 .336 64.835c0-35.346 28.654-64 64-64Z" fill="#0080FF"/></svg><svg viewBox="0 0 128 128" id="stack--ts" xmlns="http://www.w3.org/2000/svg"><path fill="#fff" d="M22.67 47h99.67v73.67H22.67z"/><path fill="#007acc" d="M1.5 63.91v62.5h125v-125H1.5Zm100.73-5a15.56 15.56 0 0 1 7.82 4.5 20.58 20.58 0 0 1 3 4c0 .16-5.4 3.81-8.69 5.85-.12.08-.6-.44-1.13-1.23a7.09 7.09 0 0 0-5.87-3.53c-3.79-.26-6.23 1.73-6.21 5a4.58 4.58 0 0 0 .54 2.34c.83 1.73 2.38 2.76 7.24 4.86 8.95 3.85 12.78 6.39 15.16 10 2.66 4 3.25 10.46 1.45 15.24-2 5.2-6.9 8.73-13.83 9.9a38.32 38.32 0 0 1-9.52-.1 23 23 0 0 1-12.72-6.63c-1.15-1.27-3.39-4.58-3.25-4.82a9.34 9.34 0 0 1 1.15-.73L82 101l3.59-2.08.75 1.11a16.78 16.78 0 0 0 4.74 4.54c4 2.1 9.46 1.81 12.16-.62a5.43 5.43 0 0 0 .69-6.92c-1-1.39-3-2.56-8.59-5-6.45-2.78-9.23-4.5-11.77-7.24a16.48 16.48 0 0 1-3.43-6.25 25 25 0 0 1-.22-8c1.33-6.23 6-10.58 12.82-11.87a31.66 31.66 0 0 1 9.49.26Zm-29.34 5.24v5.12H56.66v46.23H45.15V69.26H28.88v-5a49.19 49.19 0 0 1 .12-5.17C29.08 59 39 59 51 59h21.83Z"/></svg><svg viewBox="0 0 32 32" fill="none" id="stack--vite" xmlns="http://www.w3.org/2000/svg"><path d="m29.884 6.146-13.142 23.5a.714.714 0 0 1-1.244.005L2.096 6.148a.714.714 0 0 1 .746-1.057l13.156 2.352a.714.714 0 0 0 .253 0l12.881-2.348a.714.714 0 0 1 .752 1.05z" fill="url(#axa)"/><path d="M22.264 2.007 12.54 3.912a.357.357 0 0 0-.288.33l-.598 10.104a.357.357 0 0 0 .437.369l2.707-.625a.357.357 0 0 1 .43.42l-.804 3.939a.357.357 0 0 0 .454.413l1.672-.508a.357.357 0 0 1 .454.414l-1.279 6.187c-.08.387.435.598.65.267l.143-.222 7.925-15.815a.357.357 0 0 0-.387-.51l-2.787.537a.357.357 0 0 1-.41-.45l1.818-6.306a.357.357 0 0 0-.412-.45z" fill="url(#axb)"/><defs><linearGradient id="axa" x1="6" y1="33" x2="235" y2="344" gradientUnits="userSpaceOnUse" gradientTransform="translate(1.34 1.894) scale(.07142)"><stop stop-color="#41D1FF"/><stop offset="1" stop-color="#BD34FE"/></linearGradient><linearGradient id="axb" x1="194.651" y1="8.818" x2="236.076" y2="292.989" gradientUnits="userSpaceOnUse" gradientTransform="translate(1.34 1.894) scale(.07142)"><stop stop-color="#FFEA83"/><stop offset=".083" stop-color="#FFDD35"/><stop offset="1" stop-color="#FFA800"/></linearGradient></defs></svg><svg viewBox="0 0 32 32" id="stack--vue" xmlns="http://www.w3.org/2000/svg"><path d="M24.4 3.925H30l-14 24.15L2 3.925h10.71l3.29 5.6 3.22-5.6Z" style="fill:#41b883"/><path d="m2 3.925 14 24.15 14-24.15h-5.6L16 18.415 7.53 3.925Z" style="fill:#41b883"/><path d="M7.53 3.925 16 18.485l8.4-14.56h-5.18L16 9.525l-3.29-5.6Z" style="fill:#35495e"/></svg><svg fill="none" viewBox="0 0 400 400" id="stack--vuetify" xmlns="http://www.w3.org/2000/svg"><path d="m203.087 130.155-58.124 100.697L200 326.236l72.896-126.261 72.862-126.26H235.651l-32.564 56.44Z" fill="#1697F6"/><path d="m127.137 199.975 3.818 6.64 54.373-94.222 22.34-38.678H54.242l72.895 126.26Z" fill="#AEDDFF"/><path d="M235.651 73.715C263.203 164.385 200 326.236 200 326.236l-55.037-95.384 90.688-157.137Z" fill="#1867C0"/><path d="M207.668 73.715c-116.082 0-76.713 132.9-76.713 132.9l76.713-132.9Z" fill="#7BC6FF"/></svg><svg viewBox="0 0 774 875.7" id="stack--webpack" xmlns="http://www.w3.org/2000/svg"><path fill="#FFF" d="m387 0 387 218.9v437.9L387 875.7 0 656.8V218.9z"/><path fill="#8ed6fb" d="M704.9 641.7 399.8 814.3V679.9l190.1-104.6 115 66.4zm20.9-18.9V261.9l-111.6 64.5v232l111.6 64.4zM67.9 641.7 373 814.3V679.9L182.8 575.3 67.9 641.7zM47 622.8V261.9l111.6 64.5v232L47 622.8zm13.1-384.3L373 61.5v129.9L172.5 301.7l-1.6.9-110.8-64.1zm652.6 0-312.9-177v129.9l200.5 110.2 1.6.9 110.8-64z"/><path fill="#1c78c0" d="M373 649.3 185.4 546.1V341.8L373 450.1v199.2zm26.8 0 187.6-103.1V341.8L399.8 450.1v199.2zm-13.4-207zM198.1 318.2l188.3-103.5 188.3 103.5-188.3 108.7-188.3-108.7z"/></svg></svg>