<?xml version="1.0" standalone="no"?>
<!DOCTYPE svg PUBLIC "-//W3C//DTD SVG 20010904//EN"
 "http://www.w3.org/TR/2001/REC-SVG-20010904/DTD/svg10.dtd">
<svg version="1.0" xmlns="http://www.w3.org/2000/svg"
 width="976.000000pt" height="976.000000pt" viewBox="0 0 976.000000 976.000000"
 preserveAspectRatio="xMidYMid meet">
<metadata>
Created by potrace 1.14, written by Peter Selinger 2001-2017
</metadata>
<g transform="translate(0.000000,976.000000) scale(0.100000,-0.100000)"
fill="#000000" stroke="none">
<path d="M9700 9477 c-3 -3 -17 -8 -30 -10 -14 -3 -45 -12 -70 -20 -25 -8 -97
-30 -160 -48 -63 -17 -121 -37 -129 -43 -12 -9 -13 -8 -7 2 7 11 4 12 -10 4
-15 -8 -189 -61 -254 -77 -8 -2 -94 -27 -190 -55 -96 -28 -183 -52 -192 -53
-10 -1 -18 -4 -18 -7 0 -4 -6 -7 -12 -7 -7 0 -47 -10 -88 -23 -41 -12 -82 -24
-90 -25 -8 -2 -15 -4 -15 -5 0 -1 -7 -3 -15 -5 -39 -9 -261 -75 -268 -79 -5
-3 -19 -7 -33 -9 -13 -3 -51 -13 -84 -23 -33 -10 -65 -19 -72 -20 -6 -1 -27
-7 -45 -12 -18 -6 -73 -22 -123 -37 -49 -15 -97 -29 -105 -32 -8 -4 -22 -7
-30 -8 -8 -1 -49 -12 -90 -24 -41 -13 -82 -25 -90 -26 -8 -2 -16 -4 -17 -5 -2
-2 -7 -4 -13 -5 -5 -1 -13 -4 -17 -5 -5 -2 -12 -4 -18 -5 -33 -6 -72 -19 -82
-28 -7 -5 -13 -7 -13 -4 0 2 -53 -11 -117 -30 -123 -36 -141 -41 -183 -49 -13
-3 -27 -8 -30 -12 -3 -4 -10 -8 -16 -9 -42 -8 -75 -16 -199 -53 -77 -22 -147
-42 -155 -43 -8 -1 -19 -5 -25 -9 -9 -5 -154 -47 -180 -52 -5 -1 -16 -5 -22
-9 -7 -5 -17 -5 -23 -2 -5 3 -10 1 -10 -6 0 -7 -3 -10 -6 -7 -3 4 -20 2 -37
-4 -34 -10 -235 -68 -252 -73 -5 -1 -17 -5 -25 -8 -8 -4 -24 -8 -35 -10 -11
-2 -27 -7 -35 -10 -17 -7 -324 -96 -353 -102 -10 -2 -57 -16 -105 -30 -47 -15
-93 -29 -102 -31 -8 -2 -40 -10 -70 -19 -30 -9 -62 -18 -70 -20 -8 -2 -15 -4
-15 -5 0 -1 -7 -3 -15 -5 -8 -2 -87 -24 -175 -50 -88 -26 -164 -48 -170 -49
-56 -15 -147 -41 -185 -54 -21 -7 -32 -10 -55 -15 -11 -3 -60 -17 -110 -32
-113 -34 -186 -55 -205 -60 -8 -2 -150 -43 -315 -90 -165 -48 -306 -88 -312
-88 -7 0 -13 -4 -13 -9 0 -5 -4 -6 -10 -3 -5 3 -18 1 -28 -4 -11 -6 -30 -12
-43 -15 -13 -3 -46 -12 -74 -20 -110 -32 -231 -67 -245 -71 -8 -2 -71 -20
-140 -40 -69 -21 -132 -39 -140 -40 -8 -2 -85 -25 -170 -50 -85 -26 -162 -48
-170 -50 -8 -2 -17 -4 -20 -5 -3 -1 -9 -3 -15 -4 -5 -1 -28 -7 -50 -14 -22 -6
-42 -11 -45 -11 -3 0 -18 -5 -35 -11 -16 -7 -77 -25 -135 -41 -135 -37 -209
-59 -240 -69 -39 -12 -144 -44 -155 -46 -14 -3 -141 -40 -198 -57 -26 -8 -47
-13 -47 -10 0 3 -6 1 -13 -5 -7 -6 -24 -12 -37 -14 -14 -2 -31 -7 -37 -11 -7
-5 -13 -6 -13 -2 0 3 -10 0 -22 -6 -13 -7 -33 -14 -45 -15 -13 -2 -33 -6 -45
-10 -13 -5 -26 -9 -30 -10 -5 -1 -9 -2 -10 -3 -2 -2 -14 -4 -28 -7 -14 -2 -34
-8 -45 -13 -19 -9 -350 -105 -475 -137 -30 -8 -62 -18 -70 -21 -8 -3 -22 -8
-30 -10 -24 -6 -31 -8 -95 -27 -33 -10 -67 -20 -75 -21 -8 -2 -55 -16 -105
-31 -49 -14 -97 -28 -105 -29 -8 -2 -16 -4 -17 -5 -2 -2 -6 -3 -10 -4 -5 -1
-35 -10 -68 -20 -33 -10 -67 -20 -75 -22 -8 -2 -46 -13 -85 -24 -38 -11 -89
-25 -113 -31 -23 -6 -42 -15 -42 -18 0 -4 23 -27 51 -52 28 -24 63 -55 78 -69
15 -14 62 -56 105 -95 44 -38 84 -74 90 -80 6 -5 51 -46 100 -90 50 -44 97
-87 106 -95 9 -8 49 -44 90 -80 40 -36 88 -79 106 -95 17 -17 45 -41 62 -55
16 -14 67 -59 113 -100 90 -81 177 -159 195 -175 6 -6 39 -35 74 -65 34 -30
79 -71 99 -90 20 -19 67 -61 104 -94 36 -32 81 -72 99 -88 18 -16 49 -44 68
-61 20 -18 73 -66 119 -107 46 -41 99 -88 117 -103 18 -16 48 -43 67 -60 18
-18 60 -54 91 -82 32 -27 84 -75 117 -106 32 -31 59 -54 59 -52 0 2 10 -6 23
-19 21 -20 64 -59 202 -181 37 -33 41 -34 56 -19 14 15 141 137 569 552 277
267 300 292 287 304 -7 6 -41 36 -76 66 -36 30 -84 73 -108 95 -23 22 -63 58
-89 80 -25 22 -68 60 -95 85 -26 25 -74 68 -105 95 -32 28 -67 59 -78 70 -12
11 -53 47 -91 80 -38 33 -81 71 -95 85 -14 14 -39 36 -56 50 -32 27 -51 52
-37 49 4 -1 15 0 23 4 25 10 294 86 315 90 11 1 26 6 32 10 7 5 23 10 35 12
13 3 61 16 108 30 47 14 126 37 175 51 50 14 151 43 225 65 154 45 163 47 189
53 10 3 55 16 100 30 44 14 92 28 106 30 13 3 28 7 33 10 5 3 24 8 43 11 18 3
36 9 39 13 3 4 14 8 25 10 11 2 43 9 70 17 28 9 104 31 170 50 66 18 161 46
210 60 50 15 97 29 105 31 22 5 108 30 163 47 26 8 47 13 47 10 0 -3 7 0 15 7
8 7 15 9 15 6 0 -4 8 -2 18 3 18 9 58 20 92 24 8 1 17 5 20 9 3 3 19 9 35 12
17 3 84 22 150 41 66 20 127 38 135 40 8 2 15 4 15 5 0 1 8 3 18 5 10 2 51 13
90 25 40 12 80 24 90 25 9 2 22 7 27 10 5 3 20 8 31 10 12 3 47 12 78 21 31 9
61 17 66 18 16 4 128 37 155 46 44 14 134 40 156 44 12 3 44 12 70 21 27 9 56
18 64 20 8 2 35 9 60 16 54 15 51 14 70 21 12 5 75 23 215 62 6 2 24 6 40 10
17 4 35 9 40 11 6 1 12 3 15 3 3 1 30 10 60 20 30 11 60 20 65 21 19 3 90 23
136 38 25 8 55 16 65 18 10 2 19 4 19 5 0 1 7 3 15 5 8 2 47 13 85 25 81 24
176 51 190 54 11 2 100 29 195 58 36 11 90 27 120 35 30 7 69 18 85 23 151 44
142 42 205 59 25 7 52 15 60 18 13 5 30 10 65 17 6 1 15 4 20 8 9 5 54 17 92
24 10 2 4 -41 -11 -64 -3 -5 -7 -19 -10 -33 -3 -13 -14 -58 -26 -99 -12 -41
-23 -82 -25 -90 -2 -8 -27 -94 -55 -190 -52 -178 -57 -194 -64 -230 -3 -11 -7
-24 -10 -28 -3 -5 -7 -19 -10 -33 -3 -13 -14 -55 -26 -94 -12 -38 -23 -77 -25
-85 -2 -8 -24 -87 -50 -175 -25 -88 -48 -169 -50 -180 -3 -11 -13 -49 -24 -85
-33 -109 -62 -214 -66 -235 -3 -11 -16 -58 -31 -105 -14 -47 -30 -103 -36
-125 -5 -22 -12 -47 -15 -55 -4 -8 -8 -26 -10 -40 -2 -13 -9 -30 -15 -37 -6
-7 -8 -13 -5 -13 2 0 -6 -37 -20 -82 -13 -46 -26 -90 -28 -98 -13 -58 -19 -77
-28 -87 -5 -7 -7 -13 -4 -13 3 0 -2 -21 -10 -47 -8 -27 -16 -55 -18 -63 -8
-36 -135 -472 -139 -479 -3 -4 -8 -23 -11 -42 -3 -19 -12 -55 -21 -80 -8 -25
-16 -54 -19 -65 -2 -10 -21 -80 -43 -154 -73 -250 -114 -395 -115 -407 0 -7
-3 -13 -7 -13 -3 0 -6 -8 -7 -17 0 -10 -10 -52 -22 -93 -12 -41 -23 -82 -25
-90 -3 -8 -9 -26 -14 -40 -5 -14 -10 -28 -11 -32 0 -5 -1 -9 -2 -10 0 -2 -2
-10 -4 -18 -19 -77 -18 -72 -44 -160 -13 -41 -24 -79 -26 -85 -3 -16 -26 -97
-36 -130 -22 -73 -72 -251 -73 -265 -1 -9 -5 -20 -8 -25 -4 -6 -15 -44 -26
-85 -36 -136 -122 -434 -134 -462 -12 -32 -14 -33 -32 -15 -14 13 -145 131
-181 162 -13 11 -58 52 -100 90 -90 82 -109 98 -206 185 -40 36 -85 76 -100
90 -15 14 -55 50 -90 80 -35 30 -81 72 -103 93 -21 20 -43 37 -48 37 -5 0 -43
-33 -83 -72 -41 -40 -181 -176 -311 -303 -390 -379 -484 -472 -484 -479 0 -7
11 -17 105 -101 31 -27 69 -61 84 -75 15 -14 58 -52 95 -85 37 -33 82 -73 99
-88 17 -16 62 -56 100 -90 38 -34 82 -73 97 -87 15 -14 55 -50 89 -80 35 -30
79 -70 99 -88 20 -19 66 -59 101 -90 35 -32 85 -76 110 -99 25 -23 65 -59 88
-80 24 -21 55 -49 70 -62 49 -41 175 -155 215 -194 22 -20 42 -37 45 -37 2 0
19 -15 37 -32 18 -18 57 -54 87 -80 31 -26 69 -60 86 -75 57 -53 140 -128 214
-193 40 -36 83 -74 95 -85 11 -11 52 -47 90 -80 38 -33 80 -71 94 -85 15 -14
55 -50 90 -80 34 -30 83 -74 108 -98 79 -75 74 -78 118 76 21 75 39 140 40
145 1 4 2 8 4 10 1 1 3 9 5 17 2 8 17 65 35 125 17 61 33 117 35 125 2 8 16
56 30 105 15 50 29 97 30 105 2 8 38 134 80 280 42 146 78 272 80 280 2 8 21
71 41 140 20 69 42 148 49 175 7 28 25 88 39 135 14 47 32 110 40 140 8 30 22
80 31 110 9 30 17 62 20 71 2 8 14 52 28 97 14 45 23 82 21 82 -3 0 0 8 5 18
6 11 12 30 15 44 2 13 16 63 31 109 15 46 29 95 31 109 3 14 12 45 21 70 17
50 17 50 28 103 4 20 11 37 17 37 5 0 7 4 4 9 -3 4 4 39 15 77 11 38 22 76 24
84 4 18 144 510 150 528 3 7 5 16 6 20 1 4 13 45 26 92 25 85 62 216 67 235 1
6 10 37 20 70 10 33 19 65 20 70 2 6 9 30 16 55 7 25 14 50 16 55 1 6 16 60
34 120 17 61 33 115 34 120 1 6 8 30 15 55 8 25 14 50 15 55 2 12 30 103 57
191 18 57 23 74 35 133 3 14 7 28 10 33 4 7 31 102 38 133 1 6 10 35 19 65 34
111 100 345 101 360 1 9 5 20 8 25 3 6 14 39 23 75 9 36 25 92 36 124 10 33
17 62 14 64 -3 3 -1 10 4 16 8 9 30 81 45 146 2 8 18 65 36 125 18 61 33 115
34 120 1 6 5 16 9 23 5 6 6 12 3 12 -3 0 -1 12 5 28 6 15 12 34 14 42 2 8 15
56 30 105 14 50 28 97 30 105 1 8 11 42 21 75 10 33 19 65 20 70 1 6 10 37 20
70 17 59 20 67 28 103 3 9 5 17 6 17 1 0 4 10 13 50 3 11 22 76 42 145 21 69
38 130 40 135 4 22 26 101 32 115 3 8 7 20 8 25 2 6 8 30 15 55 7 25 12 46 11
47 0 2 6 21 14 43 8 22 12 40 8 40 -3 0 -1 6 5 13 8 10 18 42 28 92 1 6 13 47
27 93 14 45 23 82 20 82 -3 0 0 7 7 15 6 8 9 19 6 24 -4 5 -2 12 3 15 5 3 12
23 17 43 8 41 8 41 17 63 4 13 11 38 23 85 1 6 16 57 34 115 17 58 34 116 36
130 3 14 7 32 10 40 4 8 19 60 34 115 15 55 51 179 79 275 29 96 54 186 57
200 2 14 9 36 14 50 5 14 16 52 25 85 9 33 23 85 32 115 8 30 16 60 18 65 1 6
5 18 9 27 8 18 5 53 -4 45z"/>
</g>
</svg>
