<?xml version="1.0" encoding="utf-8"?><svg viewBox="0 0 774 875.7" xmlns="http://www.w3.org/2000/svg" xmlns:xlink="http://www.w3.org/1999/xlink"><style>:root>svg{display:none}:root>svg:target{display:block}</style><svg fill="none" viewBox="0 0 61 58" id="logo--logo" xmlns="http://www.w3.org/2000/svg"><path d="m15.148 31.055 5.533-5.368-5.334-4.77 34.323-9.925-9.23 32.372-5.337-4.781-5.53 5.378 14.892 13.322L60.733.246.256 17.733l14.892 13.322Z" fill="#fff"/></svg><svg fill="none" viewBox="0 0 41 36" id="social--gmail" xmlns="http://www.w3.org/2000/svg"><path d="m41 9.225-4.881 3.093-4.881 5.344V36h6.833C39.69 36 41 34.489 41 32.625v-23.4Z" fill="#4CAF50"/><path d="m0 9.225 3.528 1.923 6.234 6.514V36H2.929C1.31 36 0 34.489 0 32.625v-23.4Z" fill="#1E88E5"/><path d="M31.238 3.6 20.5 12.88 9.762 3.6l-.976 6.525.976 7.537L20.5 26.943l10.738-9.28.976-7.538-.976-6.525Z" fill="#E53935"/><path d="M0 4.835v4.39l9.762 8.438V3.6L6.712.966C5.986.34 5.104 0 4.196 0 1.878 0 0 2.164 0 4.835Z" fill="#C62828"/><path d="M41 4.835v4.39l-9.762 8.438V3.6l3.05-2.634C35.014.34 35.897 0 36.805 0 39.121 0 41 2.164 41 4.835Z" fill="#FBC02D"/></svg><svg fill="none" viewBox="0 0 11 10" id="social--go-to" xmlns="http://www.w3.org/2000/svg"><path d="M9.555 0a.435.435 0 0 0-.049.004h-2.55a.435.435 0 1 0 0 .87h1.558L4.041 5.347a.435.435 0 1 0 .614.614L9.13 1.488v1.559a.435.435 0 1 0 .869 0V.494A.435.435 0 0 0 9.555 0ZM.87 1.743a.876.876 0 0 0-.869.869v6.519c0 .475.394.869.87.869H7.39c.475 0 .87-.394.87-.87V3.666l-.87.869V9.13H.871V2.612H5.468l.87-.87H.87Z" fill="#F3F3F3"/></svg><svg fill="none" viewBox="0 0 36 36" id="social--telegram" xmlns="http://www.w3.org/2000/svg"><path d="M18 0a18 18 0 1 0 0 36 18 18 0 0 0 0-36Z" fill="#29B6F6"/><path d="m26.955 9.9-3.371 17.213s-.145.787-1.121.787c-.518 0-.786-.247-.786-.247l-7.302-6.06-3.573-1.8-4.586-1.22s-.816-.236-.816-.91c0-.563.84-.831.84-.831L25.424 9.21s.586-.212 1.013-.211c.263 0 .563.113.563.45 0 .225-.045.45-.045.45Z" fill="#fff"/><path d="m17.1 23.854-3.083 3.037s-.134.104-.314.108a.445.445 0 0 1-.197-.039l.868-5.368 2.726 2.262Z" fill="#B0BEC5"/><path d="M23.308 12.776a.45.45 0 0 0-.631-.083L10.8 19.8s1.896 5.303 2.185 6.22c.29.92.522.941.522.941l.867-5.368 8.849-8.187a.449.449 0 0 0 .085-.63Z" fill="#CFD8DC"/></svg><svg fill="none" viewBox="0 0 36 36" id="social--whatsapp" xmlns="http://www.w3.org/2000/svg"><g clip-path="url(#ea)"><mask id="eb" style="mask-type:luminance" maskUnits="userSpaceOnUse" x="0" y="0" width="36" height="36"><path d="M36 0H0v36h36V0Z" fill="#fff"/></mask><g mask="url(#eb)"><path d="M18 36c9.941 0 18-8.059 18-18S27.941 0 18 0 0 8.059 0 18s8.059 18 18 18Z" fill="#25D366"/><path fill-rule="evenodd" clip-rule="evenodd" d="M18.593 28.015h-.004c-1.792-.001-3.552-.45-5.115-1.303L7.8 28.2l1.518-5.546a10.684 10.684 0 0 1-1.428-5.351C7.891 11.4 12.692 6.6 18.593 6.6a10.634 10.634 0 0 1 7.572 3.14 10.638 10.638 0 0 1 3.131 7.571c-.002 5.9-4.802 10.701-10.703 10.704Zm-4.856-3.24.325.192a8.882 8.882 0 0 0 4.528 1.24h.003c4.903 0 8.894-3.991 8.896-8.896a8.842 8.842 0 0 0-2.603-6.294 8.836 8.836 0 0 0-6.29-2.61c-4.906 0-8.897 3.992-8.9 8.896 0 1.681.47 3.319 1.36 4.735l.212.336-.898 3.283 3.367-.883Zm9.882-5.16c.187.09.313.152.366.242.067.111.067.646-.155 1.271-.223.625-1.292 1.195-1.806 1.272-.46.069-1.044.098-1.684-.106a15.372 15.372 0 0 1-1.525-.563c-2.507-1.083-4.201-3.513-4.522-3.972l-.047-.067-.002-.003c-.141-.188-1.09-1.454-1.09-2.763 0-1.232.605-1.878.884-2.175.02-.02.037-.04.052-.056a.983.983 0 0 1 .714-.335 10.655 10.655 0 0 1 .572.01c.156 0 .35-.002.542.459l.295.716c.23.56.485 1.18.53 1.27.066.133.111.29.022.468l-.038.076c-.067.137-.116.237-.23.37l-.137.165a4.414 4.414 0 0 1-.264.304c-.134.133-.273.277-.117.545.156.268.693 1.144 1.488 1.853a6.908 6.908 0 0 0 1.974 1.248c.073.032.133.057.177.08.267.133.423.11.579-.067.156-.179.668-.781.847-1.05.178-.267.356-.222.601-.133.246.09 1.56.736 1.828.87l.146.072Z" fill="#FDFDFD"/></g></g><defs><clipPath id="ea"><path fill="#fff" d="M0 0h36v36H0z"/></clipPath></defs></svg><svg fill="none" viewBox="0 0 78 89" id="stack--css" xmlns="http://www.w3.org/2000/svg"><path d="M6.531 79.795 0 0l78 .16-6.906 79.635L39.294 89 6.531 79.795Z" fill="#1B73BA"/><path d="M39.403 79.84V7.596l32.062.104-5.717 64.636-26.345 7.502Z" fill="#1C88C7"/><path d="M63.505 16.831H14.183l1.336 9.443h23.405l-23.03 9.707 1.335 9.128H51.16l-1.23 12.748-11.488 2.204-10.42-2.623-.801-7.24h-9.566l1.283 15.058 20.52 5.613 19.664-6.138 2.512-29.433H40.847l22.657-9.233V16.83Z" fill="#fff"/></svg><svg fill="none" viewBox="0 0 127 80" id="stack--eng" xmlns="http://www.w3.org/2000/svg"><path d="M127 0H0v80h127V0Z" fill="#2065B6"/><path d="M0 0v8.944L112.801 80H127v-8.944L14.199 0H0Zm127 0v8.944L14.199 80H0v-8.944L112.801 0H127Z" fill="#fff"/><path d="M52.917 0v80h21.166V0H52.917ZM0 26.667v26.666h127V26.667H0Z" fill="#fff"/><path d="M0 32v16h127V32H0ZM57.15 0v80h12.7V0h-12.7ZM0 80l42.333-26.667H51.8L9.466 80H0ZM0 0l42.333 26.667h-9.465L0 5.963V0Zm75.2 26.667L117.535 0H127L84.667 26.667H75.2ZM127 80 84.667 53.333h9.465L127 74.037V80Z" fill="#C00"/></svg><svg fill="none" viewBox="0 0 100 100" id="stack--git" xmlns="http://www.w3.org/2000/svg"><path d="M2.09 55.047a7.138 7.138 0 0 1 0-10.094L44.954 2.09a7.138 7.138 0 0 1 10.094 0L97.91 44.953a7.138 7.138 0 0 1 0 10.094L55.047 97.91a7.138 7.138 0 0 1-10.094 0L2.09 55.047Z" fill="#EE513B"/><path d="m36.246 10.934-4.34 4.34 11.21 11.21A7.592 7.592 0 0 0 47.32 36.79v27.424A7.592 7.592 0 0 0 50 78.906a7.59 7.59 0 0 0 3.46-14.346V36.827l10.716 10.716a7.59 7.59 0 1 0 4.583-4.098L57.249 31.938a7.59 7.59 0 0 0-9.5-9.5L36.246 10.934Z" fill="#fff"/></svg><svg fill="none" viewBox="0 0 101 100" id="stack--github" xmlns="http://www.w3.org/2000/svg"><path d="M50.46 0c-27.613 0-50 22.738-50 50.783C.46 74.579 16.593 94.49 38.343 100c-.233-.686-.383-1.481-.383-2.467v-8.68h-6.283c-3.421 0-6.463-1.494-7.938-4.27-1.637-3.085-1.92-7.803-5.979-10.69-1.204-.96-.288-2.056 1.1-1.908 2.563.736 4.688 2.522 6.688 5.171 1.991 2.654 2.929 3.254 6.65 3.254 1.804 0 4.504-.105 7.045-.512 1.367-3.525 3.73-6.77 6.617-8.303-16.65-1.739-24.596-10.152-24.596-21.574 0-4.917 2.063-9.674 5.567-13.682-1.15-3.978-2.596-12.09.442-15.18 7.491 0 12.02 4.935 13.108 6.268a36.947 36.947 0 0 1 12.142-2.035c4.316 0 8.433.736 12.175 2.044 1.075-1.325 5.608-6.276 13.116-6.276 3.05 3.093 1.588 11.24.425 15.209 3.483 4 5.533 8.743 5.533 13.652 0 11.414-7.933 19.822-24.558 21.57 4.575 2.425 7.913 9.239 7.913 14.372v11.57c0 .44-.096.757-.146 1.134 19.483-6.936 33.479-25.726 33.479-47.884C100.46 22.738 78.073 0 50.46 0Z" fill="#fff"/></svg><svg fill="none" viewBox="0 0 80 90" id="stack--gulp" xmlns="http://www.w3.org/2000/svg"><rect width="80" height="90" rx="8" fill="#EE513B"/><path d="m51.855 82.312.943-13.239 2.604-3.744s-5.927 2.042-15.85 2.042c-9.922 0-15.76-2.005-15.76-2.005l2.919 4.085 1.032 12.86c0 1.38 5.398 2.497 12.056 2.497 6.659 0 12.056-1.117 12.056-2.496ZM48.88 20.49l1.98-6.592L61.822 4.18l-2.89-2.073-11.605 10.35-2.298 7.876a182.908 182.908 0 0 0-5.192-.073c-12.223 0-22.132 1.174-22.132 2.62 0 1.448 9.909 2.622 22.132 2.622s22.132-1.174 22.132-2.621c0-1.066-5.374-1.983-13.089-2.393Z" fill="#fff"/><path d="M47.728 24.182s-.43.081-1.69.086c-1.262.004-2.157-.007-2.514-.28a.436.436 0 0 1-.148-.319c.001-.188.16-.299.361-.368l.191.252c-.083.024-.13.053-.13.083 0 .143 1.29.24 2.277.23.987-.01 2.18-.078 2.18-.22 0-.042-.09-.082-.246-.114l.19-.25c.256.067.479.196.478.42-.002.38-.577.438-.95.48ZM61.8 4.201c.276-.268-.142-.954-.933-1.532-.792-.578-1.658-.828-1.934-.56-.276.268.143.954.935 1.531.791.578 1.657.83 1.933.561ZM51.33 49.974c-.26-2.106 5.468-5.155 3.998-5.253-3.165.152-4.74 3.124-6.331 6.236-.584 1.14-2.58 6.004-3.89 5.405-1.308-.598 1.698-4.598 2.54-6.973-.972.6-4.537 2.934-5.456.749-1.477 1.057-4.633 1.63-4.277-1.147-.786 1.173-2.55 2.81-4.667 2.13-2.78-.894 1.611-8.354 2.703-7.978 1.092.377-.22 2.076-.564 2.736-.756 1.452-1.63 3.278-1.046 3.652 1 .64 3.72-2.422 3.78-2.49.508-.566 1.957-4.27 3.125-3.844 1.168.425-2.913 5.315-1.387 6.285.308.196 1.567-.12 2.333-.818.496-.452.325-1.452 1.977-4.771 1.653-3.32 3.125-7.453 4.258-7.138 1.133.315.2 2.436-.207 3.227-1.908 3.712-5.206 9.844-3.65 9.38 1.555-.464 2.365-.492 3.888-1.993 1.523-1.502 1.453-3.975 2.468-3.922 1.016.052.846.845.6 1.45.998-.964 4.736-2.993 5.638-.984 1.069 2.38-5.347 5.815-3.747 5.64 1.56-.17 4.086-1.519 5.165-2.745l2.97-22.49s-2.989 2.083-22 2.083c-19.01 0-21.69-2.04-21.69-2.04L20.39 44.89c1.342-3.212 4.529-9.711 9.552-9.493 2.285.1 5.335 3.806 2.722 3.931-1.106.053-1.218-1.85-2.528-2.13-.945-.201-2.26.446-3.111 1.147-1.696 1.398-5.343 6.914-4.861 9.664.614 3.506 5.743-1.218 6.611-2.62.611-.988 1.024-3.916 2.36-3.609 1.338.307-.116 3.328-1.085 6-1.088 2.999-1.66 6.162-3.025 5.798-1.364-.363.858-4.235.778-4.913-1.283.996-3.646 3.52-6.668 2.27l1.57 12.749s4.173 2.777 16.744 2.777c12.57 0 16.898-2.734 16.898-2.734l1.95-14.765c-1.595 1.309-6.644 3.632-6.967 1.013Z" fill="#fff"/></svg><svg fill="none" viewBox="0 0 78 89" id="stack--html" xmlns="http://www.w3.org/2000/svg"><path d="M39 81.66V7.34l32.5.108-5.796 66.494L39 81.66Z" fill="#EF652A"/><path d="M6.531 79.795 0 0l78 .16-6.906 79.635L39.294 89 6.531 79.795Z" fill="#E34F26"/><path d="M39.494 81.998V7.756l33.685.108-6.007 66.424-27.678 7.71Z" fill="#F1714D"/><path d="m62.463 26.273.912-9.757H13.812l2.739 29.915h34.205L49.415 59.19 38.46 62.138 27.345 58.92l-.59-7.612h-9.828l1.343 15.547 20.19 5.629 20.35-5.63 2.74-30.343H25.625l-1.02-10.239h37.857Z" fill="#fff"/></svg><svg fill="none" viewBox="0 0 79 89" id="stack--js" xmlns="http://www.w3.org/2000/svg"><path d="M7.276 79.795.745 0l78 .16-6.907 79.635L40.04 89 7.276 79.795Z" fill="#E9CA32"/><path d="M40.04 81.293V7.6l32.12.107-5.728 65.934-26.393 7.653Z" fill="#FFDE25"/><path d="M36.6 16.35h-8.493V65.4l-6.604-1.259V57.54L13.64 56.28v14.778l22.96 5.974V16.35Zm6.37 0h23.508l-1.572 9.401H51.944v15.427h12.962l-1.573 31.138-20.364 4.716v-9.746l13.76-4.717.794-12.89-14.554 2.106V16.35Z" fill="#fff"/></svg><svg viewBox="0 0 319 477" id="stack--pinia" xmlns="http://www.w3.org/2000/svg"><linearGradient id="ma"><stop offset="0" stop-color="#52ce63"/><stop offset="1" stop-color="#51a256"/></linearGradient><linearGradient id="mb" x1="55.342%" x2="42.817%" xlink:href="#ma" y1="0%" y2="42.863%"/><linearGradient id="mc" x1="55.349%" x2="42.808%" xlink:href="#ma" y1="0%" y2="42.863%"/><linearGradient id="md" x1="50%" x2="50%" y1="0%" y2="58.811%"><stop offset="0" stop-color="#8ae99c"/><stop offset="1" stop-color="#52ce63"/></linearGradient><linearGradient id="me" x1="51.378%" x2="44.585%" y1="17.473%" y2="100%"><stop offset="0" stop-color="#ffe56c"/><stop offset="1" stop-color="#ffc63a"/></linearGradient><g fill="none" fill-rule="evenodd" transform="translate(-34 -24)"><path d="M103.95 258.274c44.362-4.36 60.015-40.391 65.354-94.7s-30.933-103.45-46.02-101.967c-15.089 1.483-63.04 58.905-68.378 113.213-5.338 54.308 4.683 87.815 49.045 83.454z" fill="url(#mb)" transform="rotate(-38 137.962 147.099)"/><path d="M275.877 258.274c44.361 4.36 53.167-29.265 47.828-83.573-5.338-54.309-52.073-111.611-67.161-113.094-15.088-1.483-52.575 47.54-47.236 101.848s22.207 90.458 66.569 94.819z" fill="url(#mc)" transform="rotate(52 240.026 189.003)"/><path d="M188.37 216.876c39.942 0 50.953-38.252 50.953-97.898C239.323 59.33 201.955.876 188.37.876s-52.047 58.455-52.047 118.102c0 59.646 12.105 97.898 52.047 97.898z" fill="url(#md)" transform="rotate(7 8.977 277.799)"/><path d="M184.473 501C267.593 501 335 476.855 335 367.355S267.592 168 184.473 168C101.355 168 34 257.855 34 367.355S101.355 501 184.473 501z" fill="url(#me)"/><ellipse cx="260.5" cy="335" fill="#eaadcc" rx="21.5" ry="10"/><ellipse cx="102.5" cy="329" fill="#eaadcc" rx="21.5" ry="10" transform="rotate(7 102.5 329)"/><path d="M198.248 331.459c-6.471 5.259-13.945 7.404-22.422 6.435-8.478-.969-14.761-4.487-18.85-10.556" stroke="#000" stroke-linecap="round" stroke-linejoin="round" stroke-width="6"/><path d="M114.983 279.418a21.435 21.435 0 0 1 15.414 5.762 21.431 21.431 0 0 1 6.824 14.974 21.433 21.433 0 0 1-5.763 15.414 21.434 21.434 0 0 1-14.975 6.824 21.43 21.43 0 0 1-15.413-5.763 21.434 21.434 0 0 1-6.823-14.975 21.432 21.432 0 0 1 5.762-15.413 21.431 21.431 0 0 1 14.974-6.823z" fill="#000"/><path d="M116.112 297.39a7.001 7.001 0 0 0-13.992.488 7 7 0 0 0 13.992-.489z" fill="#fff"/><path d="M245.253 284.875a21.433 21.433 0 0 1 15.414 5.762 21.432 21.432 0 0 1 6.824 14.974 21.433 21.433 0 0 1-5.763 15.414 21.432 21.432 0 0 1-14.974 6.824 21.433 21.433 0 0 1-15.413-5.763 21.433 21.433 0 0 1-6.824-14.975 21.432 21.432 0 0 1 5.763-15.412 21.433 21.433 0 0 1 14.973-6.824z" fill="#000"/><g fill="#fff"><path d="M134.223 300.259c.356 10.212-7.633 18.778-17.845 19.134-10.21.357-18.776-7.63-19.133-17.843-.356-10.211 7.631-18.777 17.842-19.134 10.212-.357 18.78 7.631 19.136 17.843zm5.996-.21c-.472-13.523-11.818-24.102-25.341-23.63-13.523.473-24.101 11.817-23.63 25.34.473 13.524 11.817 24.103 25.34 23.63 13.524-.471 24.103-11.816 23.631-25.34zM264.492 305.715c.357 10.213-7.63 18.779-17.843 19.135-10.21.357-18.777-7.63-19.134-17.843-.357-10.211 7.632-18.777 17.843-19.134 10.212-.357 18.778 7.631 19.134 17.842zm5.997-.209c-.472-13.523-11.817-24.102-25.34-23.63-13.523.473-24.103 11.817-23.63 25.34.472 13.524 11.817 24.103 25.34 23.63 13.524-.471 24.102-11.816 23.63-25.34z" fill-rule="nonzero" stroke="#fff" stroke-width="3"/><path d="M246.381 302.846a7 7 0 1 0-13.992.49 7 7 0 0 0 13.992-.49z"/></g><g stroke-linecap="round" stroke-width="11"><g stroke="#ecb732"><path d="m70.5 377.5 74 77M134.5 386.5l-47 50"/></g><g stroke="#ecb732"><path d="m297.5 377.5-74 77M233.5 386.5l47 50"/></g><g stroke="#ffc73b"><path d="m214.5 207.5-49 49M204.5 256.5l-49-49"/></g></g></g></svg><svg fill="none" viewBox="0 0 98 108" id="stack--pug" xmlns="http://www.w3.org/2000/svg"><g clip-path="url(#na)"><path d="M82.228 42.947c-.153-3.713.306-7.003-1.225-9.788-3.675-6.918-12.862-10.968-31.237-10.968s-28.022 4.05-31.697 11.053c-1.455 2.869-1.302 6.075-1.531 9.787-.154 2.953-1.379 6.075-.843 9.45.613 4.388.843 8.775 1.455 12.825.46 3.29 4.594 6.075 4.977 9.197 1.072 8.606 9.187 12.572 27.562 12.572v.675h-.46.537v-.675c18.375 0 26.184-3.966 27.18-12.572.382-3.206 4.21-5.906 4.67-9.197.612-4.05.842-8.437 1.454-12.825.536-3.375-.689-6.58-.842-9.534Z" fill="#EFCCA3"/><path d="M49.46 45.984c3.291.085 5.588 2.363 7.732 4.472 2.527 2.447 6.814 4.135 8.575 6.244 1.761 2.11 4.058 4.219 4.9 7.51.842 3.29 1.072 7.509 1.072 8.606 0 1.096.536.843 2.067 0 3.599-1.941 7.58-7.172 7.58-7.172-.46 3.29-4.364 6.243-4.747 9.365-.919 8.607-8.498 12.741-27.256 12.741h-.077.46" fill="#CCAC8D"/><path d="M61.556 39.403c.69 2.616 3.14 11.475-1.608 8.522 0 0 1.99 1.266 3.216 6.075 1.301 4.81 4.44 5.4 4.44 5.4s5.13 1.097 8.958-2.531c3.216-3.038 3.752-8.438 2.374-12.572-1.378-4.05-3.828-5.316-7.427-6.16-3.598-.928-10.795-1.687-9.953 1.266Z" fill="#CCAC8D"/><path d="M70.667 56.447c3.721 0 6.738-3.324 6.738-7.425 0-4.1-3.017-7.425-6.738-7.425-3.72 0-6.737 3.324-6.737 7.425 0 4.1 3.016 7.425 6.737 7.425Z" fill="#000"/><path d="M68.906 47.672c.973 0 1.761-.87 1.761-1.94 0-1.073-.788-1.941-1.76-1.941-.973 0-1.761.868-1.761 1.94s.788 1.94 1.76 1.94Z" fill="#fff"/><path d="M60.408 48.684s6.048 4.557 9.34 9.029c3.292 4.471 3.216 5.315 3.216 5.315L70.59 64.21s-3.368-7.003-7.503-9.618c-4.21-2.616-4.67-4.81-4.67-4.81l1.99-1.097Z" fill="#EFCCA3"/><path d="M49.69 45.984c-3.293.085-5.743 2.363-7.963 4.472-2.527 2.447-6.968 4.135-8.729 6.244-1.76 2.11-4.134 4.219-4.976 7.51-.842 3.29-1.149 7.509-1.149 8.606 0 1.096.154 1.18-2.067 0-3.598-1.857-7.58-7.172-7.58-7.172.46 3.29 4.365 6.243 4.747 9.365 1.072 8.607 8.652 12.741 27.41 12.741h.383" fill="#CCAC8D"/><path d="M67.451 60.244c-3.674-4.978-9.57-9.619-17.762-9.619h-.077c-8.192 0-14.087 4.64-17.762 9.619-3.828 5.147-3.522 7.172-3.522 12.065 0 17.72 5.666 12.657 9.417 14.85 3.828 2.11 7.81 1.435 11.867 1.435h.077c4.134 0 8.04.59 11.867-1.519 3.752-2.11 9.417 3.122 9.417-14.597.077-4.894.307-7.087-3.522-12.234Z" fill="#56332B"/><path d="M49.306 55.013s-.536 8.184-1.608 9.787l1.99-.506-.382-9.281Z" fill="#442823"/><path d="M49.842 55.013s.536 8.184 1.608 9.787l-1.99-.506.382-9.281Z" fill="#442823"/><path d="M43.411 53.072c-.766-1.94 1.99-5.063 6.355-5.147 4.364 0 7.12 3.122 6.355 5.147-.766 2.025-3.522 2.615-6.355 2.7-2.756-.084-5.59-.675-6.355-2.7Z" fill="#56332B"/><path d="M49.766 55.013c0-.338 2.603-.422 3.98-1.435 0 0-2.832 1.013-3.445.59-.612-.337-.765-1.35-.765-1.35s-.23 1.013-.69 1.35c-.535.338-3.75-.59-3.75-.59s4.287 1.181 4.287 1.435c0 .253-.077 1.096-.077 1.687 0 2.11 0 7.34.306 7.763.46.759.307-5.653.307-7.763-.077-.675-.077-1.35-.153-1.687Z" fill="#000"/><path d="M49.919 66.319c1.301 0 3.598 1.012 5.665 2.615-1.99-2.447-4.364-4.134-5.665-4.134-1.378 0-4.288 1.856-6.355 4.556 2.144-1.856 4.9-3.037 6.355-3.037Z" fill="#7F4A41"/><path d="M49.383 81.253c-2.91 0-5.742-1.013-8.346-1.772-.535-.169-1.071.253-1.607.085-4.824-1.688-8.728-4.557-11.102-8.185v.844c0 17.719 5.666 12.74 9.417 14.85 3.828 2.11 7.81 1.434 11.867 1.434h.077c4.134 0 8.04.59 11.867-1.519 3.752-2.109 9.417 3.038 9.417-14.68 0-.676 0-1.35.077-1.941-2.22 3.965-6.278 7.087-11.331 8.943-.46.17-1.532-.253-1.99-.168-2.757 1.012-5.207 2.109-8.346 2.109Z" fill="#442823"/><path d="M42.11 71.719s-1.915 6.328-.613 9.112l-1.761-.844s1.301-6.412 2.373-8.268Zm15.159 0s1.914 6.328.612 9.112l1.761-.844s-1.378-6.412-2.373-8.268Z" fill="#442823"/><path d="M37.21 39.403c-.69 2.616-3.14 11.475 1.607 8.522 0 0-1.99 1.266-3.216 6.075-1.225 4.81-4.44 5.4-4.44 5.4s-5.13 1.097-8.958-2.531c-3.216-3.038-3.752-8.438-2.373-12.572 1.378-4.134 3.828-5.316 7.426-6.16 3.599-.928 10.719-1.687 9.953 1.266Z" fill="#CCAC8D"/><path d="M49.69 64.8c2.066 0 8.498 4.894 8.574 10.884v-.337c0-6.244-5.206-11.222-8.575-11.222-3.368 0-8.575 5.063-8.575 11.222v.337c.077-5.99 6.508-10.884 8.575-10.884Z" fill="#000"/><path d="M51.36 53.118c.328-.093.465-.717.307-1.394-.159-.677-.553-1.15-.88-1.057-.328.093-.465.717-.306 1.394.158.677.552 1.15.88 1.057ZM47.425 53.105c.323.11.737-.341.925-1.009.188-.667.079-1.298-.245-1.408-.323-.11-.737.34-.925 1.008-.188.668-.078 1.299.245 1.41Z" fill="#331712"/><path d="M28.481 56.447c3.721 0 6.738-3.324 6.738-7.425 0-4.1-3.017-7.425-6.738-7.425-3.72 0-6.737 3.324-6.737 7.425 0 4.1 3.016 7.425 6.737 7.425Z" fill="#000"/><path d="M30.242 47.672c.973 0 1.761-.87 1.761-1.94 0-1.073-.788-1.941-1.76-1.941-.973 0-1.762.868-1.762 1.94s.789 1.94 1.761 1.94Z" fill="#fff"/><path d="M51.68 49.106c0-.084-1.761.844-2.22.928-.46-.084-2.22-1.012-2.22-.928h4.44Z" fill="#7F4A41"/><path d="M38.281 48.684s-6.048 4.557-9.34 9.029c-3.293 4.471-3.216 5.315-3.216 5.315l2.373 1.181s3.369-7.003 7.503-9.618c4.135-2.616 4.67-4.81 4.67-4.81l-1.99-1.097Z" fill="#EFCCA3"/><path d="M25.036 35.184s-2.067 6.244-6.661 8.86c0 0 7.197-.928 6.66-8.86Zm48.31 0s2.068 6.244 6.662 8.86c0 0-7.197-.928-6.661-8.86ZM60.256 46.828s-4.518-5.231-10.566-5.4h.153c-6.125.169-10.565 5.4-10.565 5.4 5.282-4.05 9.8-3.966 10.565-3.966-.076 0 5.13-.084 10.413 3.966ZM54.972 35.86s-2.297-3.543-5.36-3.628h.154c-2.297.085-5.283 3.628-5.283 3.628 2.603-2.784 5.283-2.7 5.283-2.7s2.526-.084 5.206 2.7Zm-26.49 25.903s-3.6 1.941-6.202.76h-.077c-2.297-1.435-3.445-5.738-3.445-5.738s2.297 7.594 9.723 4.978Zm41.956 0s3.598 1.941 6.201.76c3.063-1.435 3.522-5.738 3.522-5.738s-2.297 7.594-9.724 4.978Z" fill="#CCAC8D"/><path d="M32.616 34.762c1.99-.422 5.282-.506 7.886.422 3.292 1.266.612 5.907 1.301 6.16.69.253 1.608-3.207 7.733-2.87 6.201.338 6.89 3.376 7.733 2.87.842-.507-.842-8.438 8.422-6.582 0 0-9.724-2.868-9.264 4.894 0 0-5.59-4.725-13.399-.506.077 0 2.067-7.256-10.412-4.388Zm33.917 0c.153 0 .23.085.306.085.077 0-.076-.085-.306-.085ZM29.936 24.384s-8.269 11.475-9.494 15.863c-1.225 4.472-2.144 22.781-3.215 25.397l-3.829-18.057 7.044-18.815 9.494-4.388Zm38.894 0s8.268 11.475 9.493 15.863c1.225 4.472 2.144 22.781 3.216 25.397l3.828-18.057-7.044-18.815-9.493-4.388Z" fill="#CCAC8D"/><path d="M68.447 24.384s8.881 8.185 11.484 17.635c2.604 9.45 1.532 20.925 3.522 22.36 2.833 2.024 6.049-10.042 7.12-11.307 1.685-2.025 7.274-7.172 7.657-8.1.383-.928-11.331-15.019-16.461-17.803-6.202-3.207-13.858-3.46-13.322-2.785Z" fill="#56332B"/><path d="M76.026 29.447s10.49 14.765 10.336 33.16l4.211-9.45c-.076 0-3.751-12.066-14.547-23.71Z" fill="#442823"/><path d="M29.936 24.384S21.055 32.57 18.452 42.02c-2.604 9.45-1.532 20.925-3.522 22.36-2.833 2.024-6.049-10.042-7.12-11.307C6.124 51.047.535 45.9.152 44.972c-.383-.928 11.332-15.019 16.461-17.803 6.202-3.207 13.858-3.46 13.322-2.785Z" fill="#56332B"/><path d="M22.356 29.447S11.867 44.212 12.02 62.607l-4.134-9.45s3.675-12.066 14.47-23.71Z" fill="#442823"/><path d="M16.69 62.944s.766 4.556 1.991 5.99c1.225 1.435.383-1.096.383-1.096s-1.302-.76-1.072-6.582c.23-5.822-1.302 1.688-1.302 1.688Zm65.308 0s-.765 4.556-1.99 5.99c-1.225 1.435-.383-1.096-.383-1.096s1.301-.76 1.072-6.582c-.23-5.822 1.301 1.688 1.301 1.688Z" fill="#CCAC8D"/><path d="M41.727 60.16c.338 0 .612-.303.612-.676 0-.373-.274-.675-.612-.675-.338 0-.613.303-.613.675 0 .373.275.675.613.675ZM38.205 64.21c.338 0 .612-.303.612-.676 0-.372-.274-.675-.612-.675-.338 0-.613.303-.613.675 0 .373.275.675.613.675ZM37.056 60.16c.339 0 .613-.303.613-.676 0-.373-.274-.675-.613-.675-.338 0-.612.303-.612.675 0 .373.274.675.612.675ZM56.656 60.16c.339 0 .613-.303.613-.676 0-.373-.274-.675-.613-.675-.338 0-.612.303-.612.675 0 .373.274.675.612.675ZM60.178 64.21c.339 0 .613-.303.613-.676 0-.372-.274-.675-.613-.675-.338 0-.612.303-.612.675 0 .373.274.675.612.675ZM61.327 60.16c.338 0 .612-.303.612-.676 0-.373-.274-.675-.612-.675-.338 0-.613.303-.613.675 0 .373.275.675.613.675Z" fill="#442823"/></g><defs><clipPath id="na"><path fill="#fff" d="M0 0h98v108H0z"/></clipPath></defs></svg><svg fill="none" viewBox="0 0 88 94" id="stack--scss" xmlns="http://www.w3.org/2000/svg"><path d="M75.755 53.977c-3.077.025-5.742 1.078-7.976 2.646-.825-2.327-1.65-4.36-1.788-5.879-.154-1.763-.343-2.841-.154-4.948.189-2.106 1.048-5.095 1.048-5.34-.017-.22-.19-1.298-1.96-1.323-1.77-.024-3.3.49-3.472 1.152a37.8 37.8 0 0 0-.739 3.747c-.31 2.303-3.54 10.46-5.38 14.747-.602-1.666-1.117-3.136-1.22-4.312-.155-1.763-.344-2.841-.155-4.948.189-2.106 1.048-5.095 1.048-5.34-.017-.22-.189-1.298-1.959-1.322-1.77-.025-3.3.49-3.472 1.15-.172.662-.361 2.23-.74 3.749-.36 1.518-4.658 15.138-5.775 18.69a92.805 92.805 0 0 1-1.426 4.237c-.361.98-.018.074-.052.172-.31.832-.481 1.298-.481 1.298v.025c-.241.612-.499 1.2-.62 1.2-.085 0-.257-1.641.035-3.895.636-4.728 2.183-12.1 2.166-12.37 0-.122.292-1.42-.997-2.082-1.255-.661-1.702.44-1.805.44-.103 0-.19.393-.19.393s1.393-8.304-2.663-8.304c-2.544 0-6.05 3.944-7.787 7.545-1.1.857-3.438 2.67-5.913 4.605-.945.735-1.925 1.518-2.853 2.229l-.19-.295C15.37 54.174 6.278 48.882 6.656 38.84c.137-3.65 1.031-13.276 17.464-24.936 13.459-9.553 24.236-6.932 26.11-1.102 2.664 8.328-5.758 23.81-19.75 26.038-5.329.858-8.13-2.082-8.835-3.184-.74-1.151-.842-1.2-1.117-.98-.447.343-.172 1.372 0 1.984.412 1.544 2.131 4.287 5.053 5.659 2.561 1.2 8.818 1.861 16.381-2.303 8.474-4.678 15.092-17.66 13.15-28.512C53.134.455 40.277-3.17 28.124 2.978 20.887 6.653 13.05 12.385 7.411 19.905.707 28.82-.359 36.61.09 39.844 1.653 51.38 12.809 58.9 17.278 64.46c-.224.172-.43.343-.62.49-2.234 1.568-10.742 7.912-12.874 14.624-2.406 7.593.378 13.056 2.235 13.79 5.741 2.279 11.62-1.812 14.8-8.548 3.162-6.736 2.784-15.481 1.323-19.474l-.052-.147 1.754-1.47a103.098 103.098 0 0 1 3.231-2.596c-.55 2.13-.945 4.654-1.151 8.328-.24 4.312.997 9.896 2.63 12.1.722.956 1.581.98 2.114.98 1.89 0 2.75-2.229 3.696-4.898 1.168-3.258 2.2-7.03 2.2-7.03s-1.29 10.214 2.234 10.214c1.29 0 2.579-2.376 3.163-3.6v.024s.034-.074.103-.245c.072-.152.141-.307.206-.466v-.049c.516-1.273 1.668-4.188 3.387-9.014 2.217-6.222 4.349-14.011 4.349-14.011s.206 1.91.842 5.046c.378 1.862 1.203 3.895 1.839 5.879-.516 1.029-.825 1.617-.825 1.617l.017.024a71.478 71.478 0 0 1-1.358 2.45c-1.753 2.988-3.85 6.393-4.125 7.373-.327 1.151-.258 2.008.378 2.695.464.49 1.29.587 2.166.49 1.581-.148 2.681-.71 3.231-1.054.86-.44 1.84-1.102 2.785-2.082 1.719-1.813 2.767-4.385 2.664-7.814-.051-1.886-.481-3.748-1.014-5.511.155-.319.31-.637.464-.98 2.716-5.659 4.813-11.88 4.813-11.88s.206 1.91.842 5.046c.327 1.592.98 3.331 1.565 5.046-2.544 2.964-4.143 6.393-4.693 8.647-1.014 4.164-.224 6.05 1.272 6.491.67.196 1.633-.245 2.355-.686.894-.416 1.976-1.127 2.974-2.18 1.718-1.813 3.369-4.335 3.283-7.74-.052-1.568-.344-3.111-.74-4.581 2.166-1.274 4.968-2.009 8.526-1.396 7.65 1.274 9.162 8.083 8.87 10.925-.292 2.841-1.89 4.409-2.424 4.899-.533.465-.705.637-.653.98.069.514.31.49.773.392.636-.147 4.023-2.327 4.16-7.57.207-6.736-4.28-14.085-12.238-14.012ZM16.762 82.318c-2.527 3.944-6.085 5.438-7.598 4.165-1.633-1.348-.997-7.153 2.115-11.342 1.89-2.547 4.348-4.899 5.964-6.344.361-.318.911-.784 1.565-1.347.103-.098.171-.147.171-.147.12-.098.258-.22.396-.343 1.151 5.977.051 11.219-2.613 15.358ZM35.24 64.412c-.877 3.062-2.733 10.925-3.85 10.484-.963-.367-1.547-6.32-.19-12.198.688-2.964 2.15-6.492 3.009-7.864 1.392-2.204 2.905-2.939 3.283-2.033.447 1.176-1.702 9.7-2.252 11.611Zm15.247 10.386c-.378.27-.722.466-.877.319-.12-.098.155-.465.155-.465s1.908-2.915 2.664-4.263c.43-.783.945-1.69 1.495-2.718v.293c0 3.528-2.371 5.879-3.437 6.834Zm11.757-3.82c-.275-.295-.24-1.201.688-4.043.36-1.126 1.186-3.013 2.612-4.8.172.734.275 1.444.258 2.106-.017 4.41-2.217 6.05-3.558 6.736Z" fill="#CF649A"/></svg><svg fill="none" viewBox="0 0 133 132" id="stack--setting" xmlns="http://www.w3.org/2000/svg"><path d="M99.439 85.7c.89-1.44 1.781-2.879 2.542-4.635.762-1.755 1.205-3.389 1.648-5.022l13.118-2.653c1.181-.27 2.2-1.392 2.005-2.781l-2.801-20.513c-.195-1.39-1.124-2.313-2.528-2.14l-13.381.191a43.957 43.957 0 0 0-6.41-8.518l4.119-12.556c.252-1.195-.262-2.46-1.381-2.946l-19.248-8.352c-1.119-.486-2.619-.093-3.095 1.004L67.67 28.364c-3.704-.043-7.28.231-10.6 1.138l-9-9.903c-.928-.925-2.461-1.068-3.29-.385L28.11 31.28c-1.148.806-1.272 2.317-.662 3.364l7.024 11.393c-.89 1.439-1.78 2.878-2.543 4.634-.761 1.756-1.204 3.389-1.647 5.022l-13.566 2.459c-1.181.27-2.2 1.392-2.005 2.781l2.577 20.416c.196 1.39 1.124 2.314 2.529 2.14l13.38-.192a43.961 43.961 0 0 0 6.41 8.519l-4.118 12.556c-.252 1.195.262 2.461 1.38 2.946l19.248 8.352c1.12.485 2.62.093 3.096-1.004l6.356-11.585c3.705.043 7.28-.231 10.6-1.138l9 9.903c.928.924 2.462 1.068 3.29.385l16.671-12.065c1.147-.806 1.271-2.317.662-3.364l-6.353-11.102Zm-42.342 1.968c-12.31-5.34-18.096-19.587-12.858-31.657 5.237-12.07 19.594-17.577 31.903-12.236 12.31 5.342 18.096 19.587 12.859 31.658-5.238 12.07-19.594 17.577-31.904 12.235Z" fill="#607D8B"/><path d="M78.046 39.386c-14.77-6.41-31.999.198-38.284 14.682-6.285 14.485.659 31.58 15.43 37.99 14.771 6.409 32-.199 38.284-14.683 6.285-14.485-.658-31.58-15.43-37.99ZM61.858 76.695c-6.267-2.72-9.095-9.684-6.43-15.829 2.667-6.145 9.686-8.837 15.953-6.118 6.266 2.72 9.095 9.684 6.429 15.83-2.667 6.144-9.685 8.836-15.952 6.117Z" fill="#455A64"/></svg><svg viewBox="0 0 128 128" id="stack--ts" xmlns="http://www.w3.org/2000/svg"><path fill="#fff" d="M22.67 47h99.67v73.67H22.67z"/><path fill="#007acc" d="M1.5 63.91v62.5h125v-125H1.5Zm100.73-5a15.56 15.56 0 0 1 7.82 4.5 20.58 20.58 0 0 1 3 4c0 .16-5.4 3.81-8.69 5.85-.12.08-.6-.44-1.13-1.23a7.09 7.09 0 0 0-5.87-3.53c-3.79-.26-6.23 1.73-6.21 5a4.58 4.58 0 0 0 .54 2.34c.83 1.73 2.38 2.76 7.24 4.86 8.95 3.85 12.78 6.39 15.16 10 2.66 4 3.25 10.46 1.45 15.24-2 5.2-6.9 8.73-13.83 9.9a38.32 38.32 0 0 1-9.52-.1 23 23 0 0 1-12.72-6.63c-1.15-1.27-3.39-4.58-3.25-4.82a9.34 9.34 0 0 1 1.15-.73L82 101l3.59-2.08.75 1.11a16.78 16.78 0 0 0 4.74 4.54c4 2.1 9.46 1.81 12.16-.62a5.43 5.43 0 0 0 .69-6.92c-1-1.39-3-2.56-8.59-5-6.45-2.78-9.23-4.5-11.77-7.24a16.48 16.48 0 0 1-3.43-6.25 25 25 0 0 1-.22-8c1.33-6.23 6-10.58 12.82-11.87a31.66 31.66 0 0 1 9.49.26Zm-29.34 5.24v5.12H56.66v46.23H45.15V69.26H28.88v-5a49.19 49.19 0 0 1 .12-5.17C29.08 59 39 59 51 59h21.83Z"/></svg><svg preserveAspectRatio="xMidYMid" viewBox="-1.871 -0.407 259.721 257.849" id="stack--vite" xmlns="http://www.w3.org/2000/svg"><linearGradient id="ra" x1="-.828%" x2="57.636%" y1="7.652%" y2="78.411%"><stop offset="0" stop-color="#41d1ff"/><stop offset="1" stop-color="#bd34fe"/></linearGradient><linearGradient id="rb" x1="43.376%" x2="50.316%" y1="2.242%" y2="89.03%"><stop offset="0" stop-color="#ffea83"/><stop offset=".083" stop-color="#ffdd35"/><stop offset="1" stop-color="#ffa800"/></linearGradient><path d="M255.153 37.938 134.897 252.976c-2.483 4.44-8.862 4.466-11.382.048L.875 37.958c-2.746-4.814 1.371-10.646 6.827-9.67l120.385 21.517a6.537 6.537 0 0 0 2.322-.004l117.867-21.483c5.438-.991 9.574 4.796 6.877 9.62z" fill="url(#ra)"/><path d="M185.432.063 96.44 17.501a3.268 3.268 0 0 0-2.634 3.014l-5.474 92.456a3.268 3.268 0 0 0 3.997 3.378l24.777-5.718c2.318-.535 4.413 1.507 3.936 3.838l-7.361 36.047c-.495 2.426 1.782 4.5 4.151 3.78l15.304-4.649c2.372-.72 4.652 1.36 4.15 3.788l-11.698 56.621c-.732 3.542 3.979 5.473 5.943 2.437l1.313-2.028 72.516-144.72c1.215-2.423-.88-5.186-3.54-4.672l-25.505 4.922c-2.396.462-4.435-1.77-3.759-4.114l16.646-57.705c.677-2.35-1.37-4.583-3.769-4.113z" fill="url(#rb)"/></svg><svg viewBox="0 0 32 32" id="stack--vue" xmlns="http://www.w3.org/2000/svg"><path d="M24.4 3.925H30l-14 24.15L2 3.925h10.71l3.29 5.6 3.22-5.6Z" style="fill:#41b883"/><path d="m2 3.925 14 24.15 14-24.15h-5.6L16 18.415 7.53 3.925Z" style="fill:#41b883"/><path d="M7.53 3.925 16 18.485l8.4-14.56h-5.18L16 9.525l-3.29-5.6Z" style="fill:#35495e"/></svg><svg viewBox="0 0 774 875.7" id="stack--webpack" xmlns="http://www.w3.org/2000/svg"><path fill="#FFF" d="m387 0 387 218.9v437.9L387 875.7 0 656.8V218.9z"/><path fill="#8ed6fb" d="M704.9 641.7 399.8 814.3V679.9l190.1-104.6 115 66.4zm20.9-18.9V261.9l-111.6 64.5v232l111.6 64.4zM67.9 641.7 373 814.3V679.9L182.8 575.3 67.9 641.7zM47 622.8V261.9l111.6 64.5v232L47 622.8zm13.1-384.3L373 61.5v129.9L172.5 301.7l-1.6.9-110.8-64.1zm652.6 0-312.9-177v129.9l200.5 110.2 1.6.9 110.8-64z"/><path fill="#1c78c0" d="M373 649.3 185.4 546.1V341.8L373 450.1v199.2zm26.8 0 187.6-103.1V341.8L399.8 450.1v199.2zm-13.4-207zM198.1 318.2l188.3-103.5 188.3 103.5-188.3 108.7-188.3-108.7z"/></svg></svg>