<svg width="134" height="170" viewBox="0 0 134 170" fill="none" xmlns="http://www.w3.org/2000/svg">
<path d="M43.5819 143.965C35.9459 136.985 33.7169 122.319 36.8982 111.693C42.4144 118.392 50.0576 120.515 57.9744 121.712C70.1964 123.561 82.1993 122.87 93.5529 117.283C94.8517 116.644 96.0519 115.793 97.4711 114.932C98.5364 118.023 98.8137 121.143 98.4417 124.319C97.5368 132.053 93.6878 138.027 87.5659 142.556C85.1179 144.368 82.5276 145.987 79.9993 147.695C72.2321 152.945 70.1306 159.101 73.0492 168.054C73.1186 168.274 73.1807 168.492 73.3375 169.024C69.3718 167.248 66.475 164.664 64.2679 161.266C61.9366 157.681 60.8275 153.714 60.769 149.422C60.7398 147.333 60.7398 145.226 60.459 143.166C59.7731 138.146 57.4162 135.898 52.9762 135.768C48.4195 135.635 44.815 138.453 43.8591 142.889C43.7862 143.229 43.6803 143.566 43.5745 143.961L43.5819 143.965Z" fill="white"/>
<path d="M43.5819 143.965C35.9459 136.985 33.7169 122.319 36.8982 111.693C42.4144 118.392 50.0576 120.515 57.9744 121.712C70.1964 123.561 82.1993 122.87 93.5529 117.283C94.8517 116.644 96.0519 115.793 97.4711 114.932C98.5364 118.023 98.8137 121.143 98.4417 124.319C97.5368 132.053 93.6878 138.027 87.5659 142.556C85.1179 144.368 82.5276 145.987 79.9993 147.695C72.2321 152.945 70.1306 159.101 73.0492 168.054C73.1186 168.274 73.1807 168.492 73.3375 169.024C69.3718 167.248 66.475 164.664 64.2679 161.266C61.9366 157.681 60.8275 153.714 60.769 149.422C60.7398 147.333 60.7398 145.226 60.459 143.166C59.7731 138.146 57.4162 135.898 52.9762 135.768C48.4195 135.635 44.815 138.453 43.8591 142.889C43.7862 143.229 43.6803 143.566 43.5745 143.961L43.5819 143.965Z" fill="#D83333"/>
<path d="M0 109.924C0 109.924 22.6113 98.909 45.2857 98.909L62.3814 46.0006C63.0214 43.4421 64.8902 41.7032 67 41.7032C69.1098 41.7032 70.9786 43.4421 71.6186 46.0006L88.7145 98.909C115.569 98.909 134 109.924 134 109.924C134 109.924 95.593 5.29558 95.518 5.08566C94.4157 1.99228 92.5547 0 90.0458 0H43.9581C41.4493 0 39.6635 1.99228 38.4862 5.08566C38.4031 5.29163 0 109.924 0 109.924Z" fill="white"/>
</svg>
