<svg width="133" height="132" viewBox="0 0 133 132" fill="none" xmlns="http://www.w3.org/2000/svg">
<path d="M99.4388 85.6995C100.329 84.2603 101.22 82.8212 101.981 81.0655C102.743 79.3098 103.186 77.6764 103.629 76.043L116.747 73.3901C117.928 73.1201 118.947 71.9976 118.752 70.6089L115.951 50.0956C115.756 48.7069 114.827 47.7825 113.423 47.9553L100.042 48.1475C98.2133 45.007 96.1942 42.3054 93.6322 39.629L97.7506 27.0729C98.0029 25.8785 97.4886 24.6121 96.3696 24.1266L77.122 15.7751C76.003 15.2895 74.5031 15.6818 74.0269 16.7792L67.6704 28.3642C63.9658 28.3215 60.3897 28.5953 57.0708 29.5022L48.0705 19.599C47.1419 18.6745 45.6086 18.5308 44.7801 19.2144L28.1096 31.2791C26.9621 32.0851 26.8383 33.5961 27.4479 34.643L34.472 46.0358C33.5816 47.475 32.6912 48.9141 31.9294 50.6699C31.1676 52.4256 30.7248 54.0589 30.2821 55.6923L16.7158 58.151C15.5349 58.421 14.5159 59.5435 14.7112 60.9322L17.2883 81.3484C17.4836 82.7371 18.4121 83.6615 19.8169 83.4887L33.1975 83.2965C35.0262 86.437 37.0453 89.1386 39.6072 91.815L35.4888 104.371C35.2365 105.566 35.7508 106.832 36.8699 107.317L56.1174 115.669C57.2364 116.154 58.7364 115.762 59.2125 114.665L65.569 103.08C69.2737 103.123 72.8498 102.849 76.1687 101.942L85.1689 111.845C86.0975 112.769 87.6308 112.913 88.4593 112.23L105.13 100.165C106.277 99.3589 106.401 97.8479 105.792 96.801L99.4388 85.6995ZM57.0971 87.6685C44.7876 82.3275 39.0014 68.0815 44.2389 56.0109C49.4763 43.9403 63.8329 38.4344 76.1423 43.7755C88.4518 49.1165 94.238 63.3625 89.0006 75.4331C83.7631 87.5037 69.4066 93.0096 57.0971 87.6685Z" fill="#607D8B"/>
<path d="M78.0465 39.3857C63.2751 32.9764 46.0472 39.5836 39.7623 54.0683C33.4774 68.553 40.4208 85.6481 55.1922 92.0574C69.9635 98.4667 87.1914 91.8595 93.4763 77.3748C99.7612 62.8901 92.8178 45.795 78.0465 39.3857ZM61.858 76.6948C55.5914 73.9757 52.7626 67.011 55.4289 60.866C58.0952 54.721 65.114 52.0292 71.3806 54.7483C77.6473 57.4674 80.4761 64.432 77.8097 70.5771C75.1434 76.7221 68.1246 79.4139 61.858 76.6948Z" fill="#455A64"/>
</svg>
