<svg width="41" height="36" viewBox="0 0 41 36" fill="none" xmlns="http://www.w3.org/2000/svg">
<path d="M40.9997 9.22461L36.1187 12.3184L31.2378 17.6621V35.9996H38.0711C39.6886 35.9996 40.9997 34.4887 40.9997 32.6246V9.22461Z" fill="#4CAF50"/>
<path d="M0 9.22461L3.52794 11.1484L9.76187 17.6621V35.9996H2.92856C1.31102 35.9996 0 34.4887 0 32.6246V9.22461Z" fill="#1E88E5"/>
<path d="M31.2379 3.59961L20.4999 12.8809L9.76183 3.59961L8.78564 10.1246L9.76183 17.6621L20.4999 26.9434L31.2379 17.6621L32.2141 10.1246L31.2379 3.59961Z" fill="#E53935"/>
<path d="M0 4.83525V9.225L9.76187 17.6625V3.6L6.71226 0.966376C5.98598 0.338625 5.1035 0 4.19565 0C1.87818 0 0 2.1645 0 4.83525Z" fill="#C62828"/>
<path d="M41.0001 4.83525V9.225L31.2383 17.6625V3.6L34.2879 0.966376C35.0142 0.338625 35.8966 0 36.8045 0C39.122 0 41.0001 2.1645 41.0001 4.83525Z" fill="#FBC02D"/>
</svg>
