<svg width="36" height="36" viewBox="0 0 36 36" fill="none" xmlns="http://www.w3.org/2000/svg">
<g clip-path="url(#clip0_223_283)">
<mask id="mask0_223_283" style="mask-type:luminance" maskUnits="userSpaceOnUse" x="0" y="0" width="36" height="36">
<path d="M36 0H0V36H36V0Z" fill="white"/>
</mask>
<g mask="url(#mask0_223_283)">
<path d="M18 36C27.9411 36 36 27.9411 36 18C36 8.0589 27.9411 0 18 0C8.0589 0 0 8.0589 0 18C0 27.9411 8.0589 36 18 36Z" fill="#25D366"/>
<path fill-rule="evenodd" clip-rule="evenodd" d="M18.5931 28.0145H18.5887C16.7973 28.0139 15.0372 27.5644 13.4738 26.7117L7.7998 28.2001L9.31825 22.6537C8.38158 21.0305 7.88875 19.1893 7.8895 17.3028C7.8919 11.4014 12.6934 6.6001 18.593 6.6001C21.4563 6.60134 24.1437 7.71606 26.1645 9.73919C28.1853 11.7622 29.2975 14.4514 29.2964 17.3113C29.2941 23.2114 24.4944 28.0121 18.5931 28.0145ZM13.7367 24.7741L14.0616 24.9668C15.4275 25.7774 16.9932 26.2063 18.5895 26.2069H18.5931C23.4964 26.2069 27.4872 22.216 27.4892 17.3107C27.4902 14.9335 26.5657 12.6985 24.8861 11.0169C23.2065 9.33531 20.9728 8.40876 18.5966 8.40794C13.6895 8.40794 9.69865 12.3985 9.6967 17.3035C9.69603 18.9844 10.1664 20.6215 11.0568 22.0378L11.2684 22.3744L10.3697 25.6573L13.7367 24.7741ZM23.6191 19.6156C23.8056 19.7058 23.9316 19.7667 23.9854 19.8565C24.0522 19.968 24.0522 20.5035 23.8295 21.1282C23.6065 21.753 22.5381 22.3231 22.0242 22.3999C21.5635 22.4688 20.9804 22.4975 20.3397 22.2939C19.9513 22.1707 19.4532 22.0061 18.8151 21.7306C16.308 20.6479 14.6136 18.2179 14.2933 17.7586C14.2709 17.7265 14.2552 17.704 14.2464 17.6923L14.2443 17.6894C14.1028 17.5006 13.1544 16.2352 13.1544 14.9257C13.1544 13.6938 13.7595 13.0481 14.0381 12.7509C14.0572 12.7306 14.0748 12.7118 14.0904 12.6946C14.3356 12.4269 14.6253 12.3599 14.8036 12.3599C14.9819 12.3599 15.1604 12.3616 15.3162 12.3694C15.3354 12.3704 15.3555 12.3703 15.3761 12.3701C15.5319 12.3692 15.7263 12.3681 15.918 12.8285C15.9917 13.0057 16.0996 13.2684 16.2134 13.5454C16.4435 14.1057 16.6978 14.7247 16.7425 14.8143C16.8094 14.9482 16.854 15.1043 16.7648 15.2828C16.7514 15.3096 16.7391 15.3349 16.7272 15.359C16.6602 15.4957 16.611 15.5962 16.4973 15.729C16.4527 15.7811 16.4065 15.8374 16.3603 15.8936C16.2683 16.0057 16.1763 16.1177 16.0962 16.1975C15.9623 16.3309 15.8229 16.4755 15.9789 16.7433C16.1349 17.011 16.6717 17.8868 17.4667 18.596C18.3214 19.3583 19.0642 19.6805 19.4407 19.8438C19.5142 19.8757 19.5738 19.9015 19.6175 19.9234C19.8848 20.0573 20.0408 20.0349 20.1969 19.8565C20.3529 19.678 20.8654 19.0755 21.0436 18.8078C21.2219 18.5402 21.4002 18.5848 21.6453 18.6739C21.8906 18.7633 23.2054 19.4102 23.4729 19.5441C23.5251 19.5702 23.5739 19.5938 23.6191 19.6156Z" fill="#FDFDFD"/>
</g>
</g>
<defs>
<clipPath id="clip0_223_283">
<rect width="36" height="36" fill="white"/>
</clipPath>
</defs>
</svg>
